<?xml version="1.0" encoding="UTF-8"?>
<!-- Generator: Adobe Illustrator 19.1.0, SVG Export Plug-In . SVG Version: 6.00 Build 0)  -->
<svg xmlns="http://www.w3.org/2000/svg" xmlns:xlink="http://www.w3.org/1999/xlink" version="1.1" id="Graphics" x="0px" y="0px" viewBox="-66 72.2 325.9 296.8" style="enable-background:new -66 72.2 325.9 296.8;" xml:space="preserve">
<style type="text/css">
	.st0{opacity:0.5;}
	.st1{fill:url(#XMLID_3_);}
	.st2{fill:#B3CDFA;}
	.st3{fill:url(#SVGID_1_);}
	.st4{fill:url(#SVGID_2_);}
	.st5{fill:#FFFFFF;fill-opacity:0;}
	.st6{opacity:2.439000e-002;fill:#FBFCFE;enable-background:new    ;}
	.st7{opacity:4.878000e-002;fill:#F8FAFE;enable-background:new    ;}
	.st8{opacity:7.317100e-002;fill:#F4F7FD;enable-background:new    ;}
	.st9{opacity:9.756100e-002;fill:#F1F5FC;enable-background:new    ;}
	.st10{opacity:0.122;fill:#EDF2FC;enable-background:new    ;}
	.st11{opacity:0.1463;fill:#E9F0FB;enable-background:new    ;}
	.st12{opacity:0.1707;fill:#E6EDFA;enable-background:new    ;}
	.st13{opacity:0.1951;fill:#E2EBFA;enable-background:new    ;}
	.st14{opacity:0.2195;fill:#DFE8F9;enable-background:new    ;}
	.st15{opacity:0.2439;fill:#DBE6F8;enable-background:new    ;}
	.st16{opacity:0.2683;fill:#D8E3F7;enable-background:new    ;}
	.st17{opacity:0.2927;fill:#D4E1F7;enable-background:new    ;}
	.st18{opacity:0.3171;fill:#D0DEF6;enable-background:new    ;}
	.st19{opacity:0.3415;fill:#CDDCF5;enable-background:new    ;}
	.st20{opacity:0.3659;fill:#C9D9F5;enable-background:new    ;}
	.st21{opacity:0.3902;fill:#C6D7F4;enable-background:new    ;}
	.st22{opacity:0.4146;fill:#C2D4F3;enable-background:new    ;}
	.st23{opacity:0.439;fill:#BED2F3;enable-background:new    ;}
	.st24{opacity:0.4634;fill:#BBCFF2;enable-background:new    ;}
	.st25{opacity:0.4878;fill:#B7CDF1;enable-background:new    ;}
	.st26{opacity:0.5122;fill:#B4CAF1;enable-background:new    ;}
	.st27{opacity:0.5366;fill:#B0C8F0;enable-background:new    ;}
	.st28{opacity:0.561;fill:#ADC5EF;enable-background:new    ;}
	.st29{opacity:0.5854;fill:#A9C3EF;enable-background:new    ;}
	.st30{opacity:0.6098;fill:#A5C0EE;enable-background:new    ;}
	.st31{opacity:0.6341;fill:#A2BEED;enable-background:new    ;}
	.st32{opacity:0.6585;fill:#9EBBED;enable-background:new    ;}
	.st33{opacity:0.6829;fill:#9BB9EC;enable-background:new    ;}
	.st34{opacity:0.7073;fill:#97B6EB;enable-background:new    ;}
	.st35{opacity:0.7317;fill:#93B4EB;enable-background:new    ;}
	.st36{opacity:0.7561;fill:#90B1EA;enable-background:new    ;}
	.st37{opacity:0.7805;fill:#8CAFE9;enable-background:new    ;}
	.st38{opacity:0.8049;fill:#89ACE8;enable-background:new    ;}
	.st39{opacity:0.8293;fill:#85AAE8;enable-background:new    ;}
	.st40{opacity:0.8537;fill:#82A7E7;enable-background:new    ;}
	.st41{opacity:0.878;fill:#7EA5E6;enable-background:new    ;}
	.st42{opacity:0.9024;fill:#7AA2E6;enable-background:new    ;}
	.st43{opacity:0.9268;fill:#77A0E5;enable-background:new    ;}
	.st44{opacity:0.9512;fill:#739DE4;enable-background:new    ;}
	.st45{opacity:0.9756;fill:#709BE4;enable-background:new    ;}
	.st46{fill:#6C98E3;}
	.st47{fill:url(#XMLID_4_);}
	.st48{fill:url(#XMLID_5_);}
	.st49{fill:#FFCEBD;}
	.st50{opacity:0.4;}
	.st51{fill:#A58877;}
	.st52{fill:url(#XMLID_6_);}
	.st53{opacity:0.2;}
	.st54{fill:url(#XMLID_7_);}
	.st55{fill:url(#XMLID_8_);}
	.st56{fill:#FFFFFF;}
	.st57{fill:url(#XMLID_9_);}
	.st58{fill:url(#SVGID_3_);}
	.st59{fill:url(#SVGID_4_);}
	.st60{fill:url(#SVGID_5_);}
	.st61{fill:url(#SVGID_6_);}
	.st62{fill:url(#SVGID_7_);}
	.st63{fill:url(#SVGID_8_);}
	.st64{fill:#274187;}
	.st65{fill:#3A3C4E;}
	.st66{fill:url(#XMLID_10_);}
	.st67{fill:url(#XMLID_11_);}
	.st68{opacity:0.29;}
	.st69{fill:url(#SVGID_9_);}
	.st70{fill:url(#SVGID_10_);}
	.st71{fill:url(#SVGID_11_);}
	.st72{fill:url(#SVGID_12_);}
	.st73{fill:url(#XMLID_12_);}
	.st74{fill:url(#SVGID_13_);}
	.st75{fill:url(#SVGID_14_);}
	.st76{fill:url(#SVGID_15_);}
	.st77{fill:url(#SVGID_16_);}
	.st78{fill:url(#SVGID_17_);}
	.st79{fill:url(#SVGID_18_);}
	.st80{fill:url(#SVGID_19_);}
	.st81{fill:#3457B4;}
	.st82{fill:#89ADE9;}
	.st83{fill:#C2D7FB;}
	.st84{fill:#E3EDFE;}
	.st85{opacity:2.439000e-002;fill:#FAFBFD;enable-background:new    ;}
	.st86{opacity:4.878000e-002;fill:#F5F7FB;enable-background:new    ;}
	.st87{opacity:7.317100e-002;fill:#F0F3FA;enable-background:new    ;}
	.st88{opacity:9.756100e-002;fill:#EBEFF8;enable-background:new    ;}
	.st89{opacity:0.122;fill:#E6EBF6;enable-background:new    ;}
	.st90{opacity:0.1463;fill:#E1E6F4;enable-background:new    ;}
	.st91{opacity:0.1707;fill:#DCE2F2;enable-background:new    ;}
	.st92{opacity:0.1951;fill:#D7DEF0;enable-background:new    ;}
	.st93{opacity:0.2195;fill:#D2DAEF;enable-background:new    ;}
	.st94{opacity:0.2439;fill:#CDD6ED;enable-background:new    ;}
	.st95{opacity:0.2683;fill:#C9D2EB;enable-background:new    ;}
	.st96{opacity:0.2927;fill:#C4CEE9;enable-background:new    ;}
	.st97{opacity:0.3171;fill:#BFCAE7;enable-background:new    ;}
	.st98{opacity:0.3415;fill:#BAC6E5;enable-background:new    ;}
	.st99{opacity:0.3659;fill:#B5C2E4;enable-background:new    ;}
	.st100{opacity:0.3902;fill:#B0BDE2;enable-background:new    ;}
	.st101{opacity:0.4146;fill:#ABB9E0;enable-background:new    ;}
	.st102{opacity:0.439;fill:#A6B5DE;enable-background:new    ;}
	.st103{opacity:0.4634;fill:#A1B1DC;enable-background:new    ;}
	.st104{opacity:0.4878;fill:#9CADDA;enable-background:new    ;}
	.st105{opacity:0.5122;fill:#97A9D9;enable-background:new    ;}
	.st106{opacity:0.5366;fill:#92A5D7;enable-background:new    ;}
	.st107{opacity:0.561;fill:#8DA1D5;enable-background:new    ;}
	.st108{opacity:0.5854;fill:#889DD3;enable-background:new    ;}
	.st109{opacity:0.6098;fill:#8399D1;enable-background:new    ;}
	.st110{opacity:0.6341;fill:#7E94CF;enable-background:new    ;}
	.st111{opacity:0.6585;fill:#7990CE;enable-background:new    ;}
	.st112{opacity:0.6829;fill:#748CCC;enable-background:new    ;}
	.st113{opacity:0.7073;fill:#6F88CA;enable-background:new    ;}
	.st114{opacity:0.7317;fill:#6A84C8;enable-background:new    ;}
	.st115{opacity:0.7561;fill:#6680C6;enable-background:new    ;}
	.st116{opacity:0.7805;fill:#617CC4;enable-background:new    ;}
	.st117{opacity:0.8049;fill:#5C78C3;enable-background:new    ;}
	.st118{opacity:0.8293;fill:#5774C1;enable-background:new    ;}
	.st119{opacity:0.8537;fill:#5270BF;enable-background:new    ;}
	.st120{opacity:0.878;fill:#4D6BBD;enable-background:new    ;}
	.st121{opacity:0.9024;fill:#4867BB;enable-background:new    ;}
	.st122{opacity:0.9268;fill:#4363B9;enable-background:new    ;}
	.st123{opacity:0.9512;fill:#3E5FB8;enable-background:new    ;}
	.st124{opacity:0.9756;fill:#395BB6;enable-background:new    ;}
	.st125{fill:url(#SVGID_20_);}
	.st126{fill:url(#SVGID_21_);}
	.st127{fill:url(#SVGID_22_);}
	.st128{fill:url(#SVGID_23_);}
	.st129{fill:#464342;}
</style>
<g id="room">
</g>
<g id="man_on_desk">
</g>
<g id="pc">
	<g>
		<g id="XMLID_121_" class="st0">
			<g id="XMLID_122_">
				
					<linearGradient id="XMLID_3_" gradientUnits="userSpaceOnUse" x1="-100.3197" y1="247.1319" x2="-84.2218" y2="247.1319" gradientTransform="matrix(-1 0 0 -1 41.4264 442.4)">
					<stop offset="0" style="stop-color:#E3EDFE"></stop>
					<stop offset="1" style="stop-color:#BFD5FB"></stop>
				</linearGradient>
				<path id="XMLID_124_" class="st1" d="M137.3,217.9h-7.2c-2.6,0-4.6-2.1-4.5-4.8l2.2-40.6h11.6l2.2,40.6      C141.8,215.8,139.9,217.9,137.3,217.9z"></path>
			</g>
			<path id="XMLID_171_" class="st2" d="M130.7,213.2l2.2-40.6h-3.4l-2.2,40.6c-0.2,2.6,1.9,4.8,4.5,4.8h3.4     C132.6,217.9,130.6,215.8,130.7,213.2z"></path>
		</g>
		<g id="XMLID_61_" class="st0">
			
				<linearGradient id="SVGID_1_" gradientUnits="userSpaceOnUse" x1="-70.9776" y1="233.0014" x2="-59.8944" y2="233.0014" gradientTransform="matrix(-1 0 0 -1 41.4264 442.4)">
				<stop offset="0" style="stop-color:#E3EDFE"></stop>
				<stop offset="1" style="stop-color:#BFD5FB"></stop>
			</linearGradient>
			<polygon class="st3" points="106,203.2 106,200.8 107.7,200.8 107.7,203.2 112.4,203.2 112.4,218 101.4,218 101.4,203.2    "></polygon>
			<rect id="XMLID_62_" x="102.2" y="203.2" class="st2" width="1.5" height="14.8"></rect>
		</g>
		<g id="XMLID_64_" class="st0">
			
				<linearGradient id="SVGID_2_" gradientUnits="userSpaceOnUse" x1="-57.1679" y1="230.623" x2="-49.1327" y2="230.623" gradientTransform="matrix(-1 0 0 -1 41.4264 442.4)">
				<stop offset="0" style="stop-color:#E3EDFE"></stop>
				<stop offset="1" style="stop-color:#BFD5FB"></stop>
			</linearGradient>
			<polygon class="st4" points="94,207.3 94,205.5 95.2,205.5 95.2,207.3 98.6,207.3 98.6,218 90.5,218 90.5,207.3    "></polygon>
			<rect id="XMLID_75_" x="91.2" y="207.3" class="st2" width="1.1" height="10.7"></rect>
		</g>
		<g>
			<g class="st0">
				<ellipse id="XMLID_93_" class="st5" cx="98.1" cy="351" rx="158" ry="14.3"></ellipse>
				<ellipse class="st6" cx="98.1" cy="351" rx="154.5" ry="13.9"></ellipse>
				<ellipse class="st7" cx="98.1" cy="351" rx="150.9" ry="13.6"></ellipse>
				<ellipse class="st8" cx="98.1" cy="351" rx="147.4" ry="13.3"></ellipse>
				<path class="st9" d="M-45.7,351c0,7.2,64.4,13,143.8,13s143.8-5.8,143.8-13c0-7.2-64.4-13-143.8-13      C18.7,338.1-45.7,343.8-45.7,351z"></path>
				<path class="st10" d="M-42.2,351c0,7,62.8,12.7,140.3,12.7S238.4,358,238.4,351s-62.8-12.7-140.3-12.7S-42.2,344-42.2,351z"></path>
				<path class="st11" d="M-38.6,351c0,6.8,61.2,12.3,136.7,12.3s136.7-5.5,136.7-12.3c0-6.8-61.2-12.3-136.7-12.3      C22.6,338.6-38.6,344.2-38.6,351z"></path>
				<path class="st12" d="M-35.1,351c0,6.6,59.6,12,133.2,12s133.2-5.4,133.2-12s-59.6-12-133.2-12S-35.1,344.4-35.1,351z"></path>
				<path class="st13" d="M-31.5,351c0,6.4,58,11.7,129.6,11.7s129.6-5.2,129.6-11.7s-58-11.7-129.6-11.7      C26.5,339.3-31.5,344.6-31.5,351z"></path>
				<path class="st14" d="M-28,351c0,6.2,56.4,11.4,126.1,11.4s126.1-5.1,126.1-11.4s-56.4-11.4-126.1-11.4      C28.4,339.7-28,344.7-28,351z"></path>
				<ellipse class="st15" cx="98.1" cy="351" rx="122.6" ry="11.1"></ellipse>
				<path class="st16" d="M-20.9,351c0,6,53.3,10.7,119,10.7s119-4.9,119-10.7c0-6-53.3-10.7-119-10.7S-20.9,345.1-20.9,351z"></path>
				<path class="st17" d="M-17.4,351c0,5.8,51.7,10.4,115.5,10.4s115.5-4.7,115.5-10.4s-51.7-10.4-115.5-10.4      C34.3,340.6-17.4,345.2-17.4,351z"></path>
				<path class="st18" d="M-13.8,351c0,5.6,50.1,10.1,111.9,10.1S210,356.5,210,351c0-5.6-50.1-10.1-111.9-10.1      C36.3,340.9-13.8,345.4-13.8,351z"></path>
				<path class="st19" d="M-10.3,351c0,5.4,48.5,9.8,108.4,9.8s108.4-4.4,108.4-9.8s-48.5-9.8-108.4-9.8S-10.3,345.6-10.3,351z"></path>
				<path class="st20" d="M-6.7,351c0,5.2,46.9,9.5,104.8,9.5s104.8-4.2,104.8-9.5c0-5.2-46.9-9.5-104.8-9.5      C40.2,341.5-6.7,345.8-6.7,351z"></path>
				<path class="st21" d="M-3.2,351c0,5,45.3,9.1,101.3,9.1s101.3-4.1,101.3-9.1s-45.3-9.1-101.3-9.1S-3.2,346-3.2,351z"></path>
				<ellipse class="st22" cx="98.1" cy="351" rx="97.8" ry="8.9"></ellipse>
				<ellipse class="st23" cx="98.1" cy="351" rx="94.3" ry="8.5"></ellipse>
				<path class="st24" d="M7.4,351c0,4.5,40.6,8.2,90.8,8.2c50.1,0,90.8-3.6,90.8-8.2c0-4.5-40.6-8.2-90.8-8.2S7.4,346.5,7.4,351z"></path>
				<path class="st25" d="M10.9,351c0,4.4,39,7.8,87.2,7.8s87.2-3.5,87.2-7.8c0-4.4-39-7.8-87.2-7.8S10.9,346.6,10.9,351z"></path>
				<path class="st26" d="M14.4,351c0,4.2,37.4,7.6,83.7,7.6s83.7-3.4,83.7-7.6s-37.4-7.6-83.7-7.6S14.4,346.8,14.4,351z"></path>
				<path class="st27" d="M18,351c0,4,35.8,7.3,80.1,7.3c44.2,0,80.1-3.3,80.1-7.3s-35.8-7.3-80.1-7.3C53.9,343.8,18,347,18,351z"></path>
				<path class="st28" d="M21.5,351c0,3.8,34.3,6.9,76.6,6.9s76.6-3.1,76.6-6.9s-34.3-6.9-76.6-6.9S21.5,347.2,21.5,351z"></path>
				<path class="st29" d="M25.1,351c0,3.6,32.7,6.6,73,6.6s73-3,73-6.6s-32.7-6.6-73-6.6C57.8,344.4,25.1,347.4,25.1,351z"></path>
				<path class="st30" d="M28.6,351c0,3.5,31.2,6.2,69.5,6.2s69.5-2.8,69.5-6.2s-31.2-6.2-69.5-6.2C59.8,344.8,28.6,347.6,28.6,351z      "></path>
				<path class="st31" d="M32.2,351c0,3.3,29.6,6,65.9,6s65.9-2.7,65.9-6s-29.6-6-65.9-6S32.2,347.8,32.2,351z"></path>
				<path class="st32" d="M35.7,351c0,3.1,28,5.6,62.4,5.6c34.5,0,62.4-2.5,62.4-5.6s-28-5.6-62.4-5.6      C63.7,345.3,35.7,347.9,35.7,351z"></path>
				<path class="st33" d="M39.2,351c0,2.9,26.4,5.3,58.9,5.3c32.6,0,58.9-2.4,58.9-5.3s-26.4-5.3-58.9-5.3      C65.6,345.7,39.2,348,39.2,351z"></path>
				<path class="st34" d="M42.8,351c0,2.8,24.8,5,55.3,5s55.3-2.2,55.3-5c0-2.8-24.8-5-55.3-5S42.8,348.2,42.8,351z"></path>
				<path class="st35" d="M46.3,351c0,2.6,23.2,4.7,51.8,4.7c28.6,0,51.8-2.1,51.8-4.7s-23.2-4.7-51.8-4.7      C69.5,346.4,46.3,348.4,46.3,351z"></path>
				<path class="st36" d="M49.9,351c0,2.4,21.6,4.4,48.2,4.4c26.7,0,48.2-2,48.2-4.4s-21.6-4.4-48.2-4.4      C71.4,346.6,49.9,348.6,49.9,351z"></path>
				<path class="st37" d="M53.4,351c0,2.2,20.1,4,44.7,4c24.7,0,44.7-1.8,44.7-4s-20.1-4-44.7-4C73.4,347,53.4,348.8,53.4,351z"></path>
				<path class="st38" d="M57,351c0,2.1,18.5,3.7,41.1,3.7c22.8,0,41.1-1.7,41.1-3.7s-18.5-3.7-41.1-3.7C75.3,347.3,57,349,57,351z"></path>
				<path class="st39" d="M60.5,351c0,1.9,16.9,3.4,37.6,3.4c20.8,0,37.6-1.5,37.6-3.4s-16.9-3.4-37.6-3.4      C77.3,347.6,60.5,349.2,60.5,351z"></path>
				<path class="st40" d="M64.1,351c0,1.7,15.3,3.1,34.1,3.1s34.1-1.4,34.1-3.1S117,348,98.2,348C79.3,348,64.1,349.4,64.1,351z"></path>
				<path class="st41" d="M67.6,351c0,1.5,13.7,2.8,30.6,2.8s30.6-1.2,30.6-2.8c0-1.5-13.7-2.8-30.6-2.8      C81.2,348.2,67.6,349.4,67.6,351z"></path>
				<path class="st42" d="M71.1,351c0,1.3,12.1,2.4,27,2.4s27-1.1,27-2.4s-12.1-2.4-27-2.4S71.1,349.6,71.1,351z"></path>
				<path class="st43" d="M74.6,351c0,1.2,10.5,2.1,23.5,2.1s23.5-0.9,23.5-2.1s-10.5-2.1-23.5-2.1S74.6,349.8,74.6,351z"></path>
				<path class="st44" d="M78.1,351c0,1,9,1.8,20,1.8s20-0.8,20-1.8c0-1-9-1.8-20-1.8C87.1,349.3,78.1,350,78.1,351z"></path>
				<path class="st45" d="M81.7,351c0,0.8,7.4,1.5,16.4,1.5s16.4-0.7,16.4-1.5s-7.4-1.5-16.4-1.5C89.1,349.5,81.7,350.2,81.7,351z"></path>
				<path id="XMLID_92_" class="st46" d="M85.2,351c0,0.7,5.8,1.1,12.9,1.1c7.1,0,12.9-0.6,12.9-1.1c0-0.7-5.8-1.1-12.9-1.1      C91,349.8,85.2,350.4,85.2,351z"></path>
			</g>
			<g id="XMLID_89_">
				<polygon class="st46" points="228,202.4 194.6,202.4 168.3,287 213.3,287     "></polygon>
				
					<linearGradient id="XMLID_4_" gradientUnits="userSpaceOnUse" x1="-161.7516" y1="157.7806" x2="-177.6075" y2="85.2632" gradientTransform="matrix(-1 0 0 -1 41.4264 442.4)">
					<stop offset="0" style="stop-color:#111C3A"></stop>
					<stop offset="1" style="stop-color:#3457B4"></stop>
				</linearGradient>
				<polygon id="XMLID_91_" class="st47" points="209.7,292.1 218.5,354.2 215.4,354.2 199.2,290.1 209.6,290.1     "></polygon>
				
					<linearGradient id="XMLID_5_" gradientUnits="userSpaceOnUse" x1="-99.7433" y1="144.2226" x2="-115.5993" y2="71.705" gradientTransform="matrix(-1 0 0 -1 41.4264 442.4)">
					<stop offset="0" style="stop-color:#111C3A"></stop>
					<stop offset="1" style="stop-color:#3457B4"></stop>
				</linearGradient>
				<polygon id="XMLID_90_" class="st48" points="145.5,292.1 136.8,354.2 139.9,354.2 156,290.1 145.7,290.1     "></polygon>
				<path class="st2" d="M142.8,282.9h44.9c12.4,0,23.2-8.5,26.1-20.6l14.3-60h6.5L219.2,281c-1.3,6.4-6.9,11.1-13.5,11.1H191h-52.7      v-4.8C138.4,284.9,140.4,282.9,142.8,282.9z"></path>
			</g>
			<g>
				<path id="XMLID_88_" class="st49" d="M108.5,338.9l9,2.7l0.9-3.1c0,0-1.4-4.6,3.6-12.1c1.3-2-9-2.7-9-2.7s0.3,7.3-5.3,10      C106.5,334.2,108.5,338.9,108.5,338.9z"></path>
				<g id="XMLID_67_" class="st50">
					<path class="st51" d="M117.5,341.6l-6-1.8c0.7-0.9,1.4-1.9,2.1-2.9c2.5-3.9,4.4-8,5.9-12.3c1.9,0.5,3.2,1,2.7,1.9       c-5,7.6-3.6,12.1-3.6,12.1L117.5,341.6z"></path>
				</g>
				
					<linearGradient id="XMLID_6_" gradientUnits="userSpaceOnUse" x1="-155.4469" y1="147.0528" x2="-67.3064" y2="147.0528" gradientTransform="matrix(-1 0 0 -1 41.4264 442.4)">
					<stop offset="0.3688" style="stop-color:#2842A2"></stop>
					<stop offset="0.7097" style="stop-color:#3051AF"></stop>
					<stop offset="1" style="stop-color:#3457B4"></stop>
				</linearGradient>
				<path id="XMLID_66_" class="st52" d="M196.9,274.4l-58.9,10.2c0,0,1.4,11.5-5.8,26.8c-2.5,5.3-7.9,13.2-12,24.4l-11.4-3.6      l14-66.9c0.7-3.2,3.5-5.5,6.6-5.7l46-4.6L196.9,274.4z"></path>
				<g id="XMLID_63_" class="st53">
					<path class="st46" d="M127.4,286.8c0.7-3.2,1.9-6.6,4.5-8.5c2.2-1.6,5-1.9,7.7-2.1c13.2-1.5,26.2-5,38.4-10.5l8.3,10.6       l-48.4,8.4c0,0,1.4,11.5-5.8,26.8c-2.5,5.3-7.9,13.2-12,24.4l-4.9-1.6C123.2,320.1,123.6,302.7,127.4,286.8z"></path>
				</g>
				<path id="XMLID_60_" class="st49" d="M148.6,346.1l9-2.8l0.7-2.8c0,0-4-2.1-5.4-12.4c-0.4-2.3-9,2.8-9,2.8s3.4,4.2,2.3,9.6      C145.9,342,148.6,346.1,148.6,346.1z"></path>
				<g id="XMLID_58_" class="st50">
					<path class="st51" d="M152.9,328.1c1.5,10.3,5.4,12.4,5.4,12.4l-0.7,2.8l-9,2.8c0,0-0.2-0.3-0.5-0.7c0.3-0.8,0-2.1,0.8-2.5       c5.6-2.3,1.1-9.8,0.5-14.7C151.3,327.4,152.8,327.2,152.9,328.1z"></path>
				</g>
				
					<linearGradient id="XMLID_7_" gradientUnits="userSpaceOnUse" x1="-140.9555" y1="194.6254" x2="-84.0606" y2="115.3456" gradientTransform="matrix(-1 0 0 -1 41.4264 442.4)">
					<stop offset="3.802280e-003" style="stop-color:#2842A2"></stop>
					<stop offset="0.3368" style="stop-color:#3754B0"></stop>
					<stop offset="1" style="stop-color:#5175C9"></stop>
				</linearGradient>
				<path id="XMLID_57_" class="st54" d="M212.6,255v11.1c0,9.6-7.7,17.3-17.3,17.3h-54.9c5.4,6.4,10.8,13.9,11.2,21.7      c0.9,17.8,4.3,28.5,4.3,28.5l-11.5,3.4l-23.6-58.9c-3.5-8.7,2.9-18.2,12.3-18.2h42.6l-0.3-4.9H212.6z"></path>
				
					<linearGradient id="XMLID_8_" gradientUnits="userSpaceOnUse" x1="-120.9369" y1="95.0546" x2="-83.7616" y2="95.0546" gradientTransform="matrix(-1 0 0 -1 41.4264 442.4)">
					<stop offset="0" style="stop-color:#6C98E3"></stop>
					<stop offset="1" style="stop-color:#3457B4"></stop>
				</linearGradient>
				<path id="XMLID_56_" class="st55" d="M159.4,340.5l3,7.6v6.1h-37.2v-1.7c0-1.5,1-2.8,2.5-3.2l6-1.4l12.5-7.5h0.8l0.3,0.5      c0.7,1.1,2,1.8,3.3,1.8h4.2c1.5,0,2.9-0.8,3.5-2.2l0,0L159.4,340.5L159.4,340.5z"></path>
				<path id="XMLID_55_" class="st56" d="M162.4,351v3.3h-37.2v-1.7c0-0.6,0.2-1.1,0.4-1.6H162.4z"></path>
				
					<linearGradient id="XMLID_9_" gradientUnits="userSpaceOnUse" x1="-78.2191" y1="99.2051" x2="-40.706" y2="99.2051" gradientTransform="matrix(-1 0 0 -1 41.4264 442.4)">
					<stop offset="0" style="stop-color:#6C98E3"></stop>
					<stop offset="1" style="stop-color:#3457B4"></stop>
				</linearGradient>
				<path id="XMLID_54_" class="st57" d="M119.6,339.1l-0.5,8.2l-2.5,5.5l-34.6-15l0.7-1.5c0.7-1.4,2.1-2.1,3.5-1.9l6.1,1.2      l15.2-2.1l0.7,0.3l0.1,1.3c0.1,0.9,0.7,1.8,1.6,2.1l5.1,2.2c1.2,0.5,2.6,0.1,3.3-1l0,0L119.6,339.1z"></path>
				<path id="XMLID_53_" class="st56" d="M118.1,349.9l-1.3,3l-34.6-15l0.7-1.5c0.2-0.5,0.6-0.9,1-1.2L118.1,349.9z"></path>
				<g id="XMLID_51_" class="st53">
					<path class="st46" d="M135.4,284c1.2-3.4,4.5-5.5,7.8-6.4c3.4-0.9,7-0.8,10.4-0.9c7-0.1,14.1-0.9,20.9-2.5       c5.6-1.2,11.1-3,15.8-6.2c4.4-3.1,7.9-7.6,8.9-12.9h13.3v11.1c0,9.6-7.7,17.3-17.3,17.3h-54.8c5.4,6.4,10.8,13.9,11.2,21.7       c0.9,17.8,4.3,28.5,4.3,28.5l-5.9,1.8c0-4.1-0.7-8.4-1.3-12.5c-1.2-7.4-2.5-14.9-6.3-21.3C138.9,296.1,133.2,290.2,135.4,284z"></path>
				</g>
			</g>
			<g>
				<path id="XMLID_50_" class="st56" d="M180.5,190.6l-8.8,2.1c-3.5,0.8-6.7,2.9-9,5.6l-10.3,13.1l5.6,12.9l8.9-6.3l2.1,5.8      l1.3,10.1c0.8,6.5,1,13.1,0.6,19.6v3.5c0,0,35.3,10.1,44.3,0.4l-3.5-46.1l-18.7-20.9L180.5,190.6z"></path>
				<g class="st53">
					<path class="st46" d="M197.9,235.7c-0.3-4.9-0.4-9.6,1.9-14.1c0.9-1.9,2.1-3.5,2.7-5.6c0.4-1.5,0.5-3,0.7-4.5       c0.3-1.5,1-3,2.3-3.8c1.6-0.9,2.9-0.2,3.8,0.9c0.4,0.4,2.1,2.1,2.1,2.6c0,0.4,3.5,46.1,3.5,46.1c-3.5,3.8-11,4.6-18.8,4.1       c0.8-7.3,2.4-14.6,2-22C198.1,238.3,198,237,197.9,235.7z"></path>
				</g>
				<path id="XMLID_49_" class="st49" d="M217.9,224.4l-3.6,13.4c-0.7,2.3-2.9,3.8-5.3,3.6l-40.3-3.1l-22,4.1      c-0.8,0.2-1.4-0.8-0.8-1.5l0.7-0.8l9.3-6.4c0.5-0.4,1-0.6,1.6-0.7l11.2-1.5l35.6-2.1l0.2-6L217.9,224.4z"></path>
				<path id="XMLID_48_" class="st56" d="M192.8,189l2.8,0.2c5.7,0.3,11.2,2,16.1,4.9l0,0c7.1,4.2,10.7,12.5,8.9,20.5l-2.3,10      l-13.7-0.8l-10.7-23.8C193.8,199.8,189.2,191.1,192.8,189z"></path>
				<path id="XMLID_47_" class="st49" d="M198.2,176.1c0,0-0.8,10-0.3,18.4c0.3,3.2-2.1,6-5.2,6.4l0,0c-3.4,0.5-6.3-2-6.7-5.2      c-0.5-4.4-1.4-9.8-3.1-11L198.2,176.1z"></path>
				<g class="st50">
					<path class="st51" d="M198.2,176.1c0,0-0.8,10-0.3,18.4c0.3,3.2-2.1,6-5.2,6.4c-0.4,0.1-0.8,0.1-1.2,0c0.2-0.4,0.4-0.8,0.5-1.2       c0.9-3.2-0.5-6.7,0.4-9.9c0.6-2.2,2.1-4.2,2.9-6.4c0.6-1.9,0.4-3.7,0.1-5.6L198.2,176.1z"></path>
				</g>
				<g id="XMLID_45_">
					<path class="st49" d="M178.7,165.8c0.1-0.9,0.4-1.9,0.7-2.6c0.2-0.5,2.5-4.9,2.7-4.9l0.5,0.3c3.1-2.2,7.4-2.4,10.8-0.9       c3.5,1.5,6.2,4.6,7.6,8c2.1,4.9,1.8,10.8-0.8,15.6c-2.6,4.7-7.6,8-12.9,8.8c-2.1,0.3-4.6,0.1-6-1.5c-0.6-0.7-1-1.4-1.4-2.2       c-2-4-3.6-8.8-1.3-13.1c0.4-0.7,0.9-1.4,0.9-2.2c0.1-1-0.5-2-0.7-2.9C178.6,167.4,178.6,166.6,178.7,165.8z"></path>
				</g>
				<g class="st53">
					<path class="st46" d="M218.3,224.5l-6.5-0.4c0-0.1,0-0.1,0-0.2c0.7-5.6,4.1-10.5,4.5-16.1c0.3-4.7-1.5-9.1-3.8-13.2       c6.6,4.3,9.9,12.3,8.1,20.1L218.3,224.5z"></path>
				</g>
				<g class="st50">
					<path class="st51" d="M168.6,238.4l-21.7,4c0-0.5,0.2-1,0.5-1.4c1.1-1.7,3.5-1.7,5.5-1.7c2.7-0.1,5.4-0.5,8-1.3       c2.7-0.7,5.2-1.9,8-2.4c3.7-0.7,7.6-0.6,11.4-0.3c5.1,0.4,10.3,0.7,15.5,1c2.8,0.2,5.6,0.4,8.3-0.3c2.7-0.7,5.3-2.2,6.5-4.7       c1.1-2.2,0.9-4.9,1.2-7.4l6.1,0.4l-3.6,13.4c-0.7,2.3-2.9,3.8-5.3,3.6L168.6,238.4z"></path>
				</g>
				<g class="st50">
					<path class="st51" d="M179.5,171c0.1-1-0.5-2-0.7-2.9c-0.2-0.7-0.2-1.5-0.1-2.3c0.1-0.9,0.4-1.9,0.7-2.6       c0.2-0.5,2.5-4.9,2.7-4.9l0.5,0.3c1.6-1.1,3.5-1.8,5.3-1.9l4.4,6.5c-0.2,1.7-1.7,2.7-3.2,3.4c-1.9,0.8-3.7,1.6-5.6,2.6       c-0.5,0.3-0.9,0.6-1.3,0.9c-0.4,0.5-0.5,1.1-0.7,1.7c-0.3,0.7-0.7,1.4-1.1,2.1c-0.6,0.7-1.4,1.5-0.9,2.3       c0.2,0.4,0.6,0.6,0.8,0.8c1,1,1,2.6,0.7,4c-0.3,1.3-0.6,3.4-1.5,4.4c-2.3-3.3-2.9-8.8-1-12.2C179,172.6,179.4,171.9,179.5,171z       "></path>
				</g>
				<g>
					
						<linearGradient id="SVGID_3_" gradientUnits="userSpaceOnUse" x1="-165.8466" y1="271.3448" x2="-131.2773" y2="271.3448" gradientTransform="matrix(-1 0 0 -1 41.4264 442.4)">
						<stop offset="0" style="stop-color:#111C3A"></stop>
						<stop offset="1" style="stop-color:#3457B4"></stop>
					</linearGradient>
					<path class="st58" d="M173.5,158.5c1.7-2.8,5.6-4.7,8.2-5.5c1-0.4,2.1-0.6,3.2-0.7c2.1-0.4,4.2-0.6,6.3-0.7       c2.9-0.1,6.1,0.1,7.9,2.2c0.8,0.9,1.4,0.1,2.5,0.2c0.9,0.1,1.9,0.6,2.5,1.3c1,1.1,1.5,2.7,1.9,4.2c1.1,4.6,1.6,9.3,0.8,14       c-0.6,3.3-1.7,6.5-3.6,9.2c-0.9,1.4-4.4,6.1-6.4,3.7c-0.7-0.8-0.3-2.1,0.3-3.3c1.1-2.4,2-5.2,1.3-7.7c-0.1-0.5-0.2-0.8-0.6-1.2       c-0.4-0.4-1-0.5-1.6-0.4c-0.6,0.1-1,0.5-1.4,0.8c-1,0.9-1.7,2.1-1.9,3.5c-0.6,3.7,4.9,7.7,0.1,10.5c-2.1,1.2-5.6,1.8-8,1.8       c-2.5-0.1-6.1-0.4-7.9-2.3c-2-2.1-1.5-6.7-0.7-9.2c0.1-0.3,0.2-0.5,0.3-0.7c0.3-0.4,0.7-0.7,1.1-0.8c3.9-1.4,5.1,4.1,8.8,3.5       c1.8-0.3,2.8-2.5,3.6-3.8c1.2-1.9,2.3-3.8,3-6c0.6-1.8,0.7-4-0.7-5.3c-2.6-2.6-6.3,0.7-9.1,1.4c-2.1,0.5-4.3,0.5-6.2-0.3       c-2-0.7-3.6-2.4-4.2-4.5C172.5,160.9,172.8,159.6,173.5,158.5z"></path>
				</g>
			</g>
			<g>
				
					<linearGradient id="SVGID_4_" gradientUnits="userSpaceOnUse" x1="-166.6244" y1="192.4671" x2="-186.5221" y2="99.1969" gradientTransform="matrix(-1 0 0 -1 41.4264 442.4)">
					<stop offset="0" style="stop-color:#111C3A"></stop>
					<stop offset="1" style="stop-color:#3457B4"></stop>
				</linearGradient>
				<polygon class="st59" points="212.9,246.7 231.9,354.2 228.6,354.2 201.6,245.9     "></polygon>
				
					<linearGradient id="SVGID_5_" gradientUnits="userSpaceOnUse" x1="23.3547" y1="194.7822" x2="49.4704" y2="89.0757" gradientTransform="matrix(-1 0 0 -1 41.4264 442.4)">
					<stop offset="0" style="stop-color:#111C3A"></stop>
					<stop offset="1" style="stop-color:#3457B4"></stop>
				</linearGradient>
				<polygon class="st60" points="12.8,246.7 -6.2,354.2 -2.9,354.2 24,245.9     "></polygon>
				
					<linearGradient id="SVGID_6_" gradientUnits="userSpaceOnUse" x1="-210.9428" y1="187.1124" x2="68.2154" y2="187.1124" gradientTransform="matrix(-1 0 0 -1 41.4264 442.4)">
					<stop offset="0" style="stop-color:#E3EDFE"></stop>
					<stop offset="1" style="stop-color:#B3CDFA"></stop>
				</linearGradient>
				<polygon class="st61" points="-26.8,257.9 252.4,257.9 252.4,252.7 -26.8,252.7     "></polygon>
				<polygon class="st56" points="252.4,252.7 231.4,241.6 -34.4,241.6 -26.9,252.7     "></polygon>
				
					<linearGradient id="SVGID_7_" gradientUnits="userSpaceOnUse" x1="68.2523" y1="192.662" x2="75.8182" y2="192.662" gradientTransform="matrix(-1 0 0 -1 41.4264 442.4)">
					<stop offset="0" style="stop-color:#E3EDFE"></stop>
					<stop offset="1" style="stop-color:#B3CDFA"></stop>
				</linearGradient>
				<polygon class="st62" points="-26.8,257.9 -34.4,247.1 -34.4,241.6 -26.9,252.7     "></polygon>
			</g>
			<path id="XMLID_44_" class="st49" d="M152.3,211.5l-6.2,7.6l-28,17.4l-8.5,1.6l-5.2,3.6l11.8,0.3c1.1,0,2,0.9,1.9,2.1l-0.1,1     l-0.7,0.3c-1.2,0.5-2,1.6-2,2.9v1l3.8-1.6c0.8-0.4,1.5-1,1.8-2l1.4-5.1l30.1-10.8l5.6-5.4L152.3,211.5z"></path>
			<g class="st50">
				<path class="st51" d="M120.9,243.8c0.3-0.7,0.2-1.6,0.2-2.4c0-0.8,0.2-1.6,0.6-2.3c0.7-1.1,2.2-2,3.3-2.6      c1.5-0.9,3.1-1.8,4.7-2.4c3.8-1.4,7.6-3.5,11.6-4.4c1.2-0.3,2.3-0.5,3.5-0.7c1-0.3,2.1-0.7,3.2-0.9c0.9-0.3,1.8-0.7,2.6-1.2      c2.2-1.6,2.8-4.8,4.4-7.1c0.2-0.4,0.5-0.7,0.7-0.9l2.5,5.7l-5.6,5.4l-30.1,10.8l-1.6,5.2c-0.3,0.9-0.9,1.6-1.8,2l-3.8,1.6v-1      c0-0.2,0-0.3,0-0.5c0.9-0.5,2-0.8,2.9-1.3C119.3,245.9,120.4,245.1,120.9,243.8z"></path>
			</g>
			<g class="st53">
				<g class="st50">
					<path class="st46" d="M167.9,216.7c0.8,0.7,1.3,2,1.4,3.1c0.1,1.1-0.1,2.3-0.5,3.4c0,0.1-0.1,0.2-0.1,0.3l-2-5.4l-8.9,6.3       l-2.5-5.7c0.6-0.7,1.1-1.2,1.7-1.7c0.8-0.7,1.7-1.4,2.7-1.7c1.6-0.6,3.3-0.4,4.9,0C165.9,215.6,167,216,167.9,216.7z"></path>
				</g>
			</g>
		</g>
		<g>
			
				<linearGradient id="SVGID_8_" gradientUnits="userSpaceOnUse" x1="-142.7609" y1="196.113" x2="-93.7031" y2="196.113" gradientTransform="matrix(-1 0 0 -1 41.4264 442.4)">
				<stop offset="0" style="stop-color:#2842A2"></stop>
				<stop offset="1" style="stop-color:#3457B4"></stop>
			</linearGradient>
			<path class="st63" d="M182.5,250.9c2.1,0,2.2-0.8,0.5-1.8l-10.8-5.7c-1.9-0.9-5-1.8-7.1-1.8h-28.3c-2.1,0-2.2,0.7-0.5,1.8     l10.9,5.8c1.9,0.9,5,1.8,7.1,1.8L182.5,250.9L182.5,250.9z"></path>
			<path class="st64" d="M136.2,241.6c0.2,0.1,0.4,0.2,0.6,0.4l10.9,5.8c1.9,0.9,5,1.8,7.1,1.8H183c0.2,0,0.4,0,0.6,0     c1.2,0.8,0.8,1.4-1,1.4h-28.2c-2.1,0-5.3-0.7-7.1-1.8l-10.9-5.8C134.7,242.5,134.8,241.7,136.2,241.6z"></path>
			<g>
				<path class="st65" d="M175.8,246.5c0.1,0,0.2,0,0.2-0.1c0.1-0.1,0-0.3-0.1-0.3l-2.8-1.5c-0.1-0.1-0.3,0-0.3,0.1      c-0.1,0.1,0,0.3,0.1,0.3L175.8,246.5C175.7,246.5,175.7,246.5,175.8,246.5z"></path>
			</g>
		</g>
		<g id="XMLID_33_">
			<g id="XMLID_40_">
				<g id="XMLID_41_">
					<g id="XMLID_42_">
						
							<linearGradient id="XMLID_10_" gradientUnits="userSpaceOnUse" x1="-195.833" y1="204.3208" x2="-189.0775" y2="204.3208" gradientTransform="matrix(-1 0 0 -1 41.4264 442.4)">
							<stop offset="3.802280e-003" style="stop-color:#2842A2"></stop>
							<stop offset="0.3368" style="stop-color:#3754B0"></stop>
							<stop offset="1" style="stop-color:#5175C9"></stop>
						</linearGradient>
						<path id="XMLID_43_" class="st66" d="M230.5,242.3h2.5c2.3,0,4.2-1.9,4.2-4.2s-1.9-4.2-4.2-4.2h-1.7v1.8h1.7        c1.3,0,2.4,1.1,2.4,2.4s-1.1,2.4-2.4,2.4h-2.5V242.3z"></path>
					</g>
				</g>
			</g>
			<g id="XMLID_37_">
				<g id="XMLID_38_">
					
						<linearGradient id="XMLID_11_" gradientUnits="userSpaceOnUse" x1="-190.7593" y1="201.8491" x2="-175.2571" y2="201.8491" gradientTransform="matrix(-1 0 0 -1 41.4264 442.4)">
						<stop offset="3.802280e-003" style="stop-color:#2842A2"></stop>
						<stop offset="0.3368" style="stop-color:#3754B0"></stop>
						<stop offset="1" style="stop-color:#5175C9"></stop>
					</linearGradient>
					<path id="XMLID_39_" class="st67" d="M216.6,232.5h15.5v4.8c0,3.4-1.3,6.6-3.5,9l0,0v2.3h-8.5v-2.3l0,0c-2.2-2.4-3.5-5.7-3.5-9       L216.6,232.5L216.6,232.5z"></path>
				</g>
			</g>
			<g id="XMLID_34_" class="st68">
				<g id="XMLID_35_">
					<path id="XMLID_36_" class="st56" d="M219.9,232.5v4.8c0,3.4,1.3,6.6,3.5,9l0,0v2.3h-1.9v-2.3l0,0c-2.2-2.4-3.5-5.7-3.5-9v-4.8       H219.9z"></path>
				</g>
			</g>
		</g>
		<g>
			<rect x="30.9" y="211" class="st64" width="29.7" height="34.2"></rect>
			
				<linearGradient id="SVGID_9_" gradientUnits="userSpaceOnUse" x1="-20.1116" y1="213.4147" x2="5.3512" y2="213.4147" gradientTransform="matrix(-1 0 0 -1 41.4264 442.4)">
				<stop offset="3.802280e-003" style="stop-color:#E3EDFE"></stop>
				<stop offset="0.2686" style="stop-color:#F1F6FF"></stop>
				<stop offset="0.6035" style="stop-color:#FCFDFF"></stop>
				<stop offset="1" style="stop-color:#FFFFFF"></stop>
			</linearGradient>
			<polygon class="st69" points="36.1,247 61.5,247 61.5,210.9 36.1,210.9    "></polygon>
			<path class="st64" d="M-7.3,224.8h109.1c4,0,7.7-2.1,10-5.3l1.4-2.1l-16.7-76.6c-0.7-3.9-4-6.9-8-6.9l-110.1-2.3l-4.3,4     c-1.5,1.4-2.1,3.4-1.8,5.3l12.3,77C-14.8,221.9-11.3,224.8-7.3,224.8z"></path>
			
				<linearGradient id="SVGID_10_" gradientUnits="userSpaceOnUse" x1="-69.5445" y1="225.4119" x2="61.6342" y2="309.2803" gradientTransform="matrix(-1 0 0 -1 41.4264 442.4)">
				<stop offset="0" style="stop-color:#2842A2"></stop>
				<stop offset="1" style="stop-color:#3457B4"></stop>
			</linearGradient>
			<path class="st70" d="M-2.4,220.5h110.6c3.5,0,6.2-3.1,5.6-6.5l-12.4-77.5c-0.7-3.9-4-6.9-8-6.9H-17.3c-3.5,0-6.2,3.1-5.6,6.5     l12.4,77.5C-9.9,217.7-6.5,220.5-2.4,220.5z"></path>
			
				<linearGradient id="SVGID_11_" gradientUnits="userSpaceOnUse" x1="-72.4166" y1="231.5091" x2="53.8518" y2="231.5091" gradientTransform="matrix(-1 0 0 -1 41.4264 442.4)">
				<stop offset="3.802280e-003" style="stop-color:#E3EDFE"></stop>
				<stop offset="0.2686" style="stop-color:#F1F6FF"></stop>
				<stop offset="0.6035" style="stop-color:#FCFDFF"></stop>
				<stop offset="1" style="stop-color:#FFFFFF"></stop>
			</linearGradient>
			<path class="st71" d="M113.8,213.9c0.6,3.5-2.1,6.5-5.6,6.5H-2.4c-4,0-7.5-2.9-8-6.9l-2-12.2h124.2L113.8,213.9z"></path>
			
				<linearGradient id="SVGID_12_" gradientUnits="userSpaceOnUse" x1="-44.2686" y1="198.3049" x2="20.6475" y2="198.3049" gradientTransform="matrix(-1 0 0 -1 41.4264 442.4)">
				<stop offset="3.802280e-003" style="stop-color:#E3EDFE"></stop>
				<stop offset="0.5239" style="stop-color:#EFF5FE"></stop>
				<stop offset="1" style="stop-color:#FFFFFF"></stop>
			</linearGradient>
			<polygon class="st72" points="20.8,247 85.7,247 85.7,241.2 20.8,241.2    "></polygon>
			<rect x="12.9" y="241.2" class="st64" width="7.9" height="5.9"></rect>
		</g>
		<g>
			
				<linearGradient id="XMLID_12_" gradientUnits="userSpaceOnUse" x1="-891.198" y1="337.1378" x2="-870.1498" y2="337.1378" gradientTransform="matrix(1 0 0 -1 869.7875 442.4)">
				<stop offset="0" style="stop-color:#FC7318"></stop>
				<stop offset="3.975421e-002" style="stop-color:#FC7819"></stop>
				<stop offset="0.266" style="stop-color:#FD921D"></stop>
				<stop offset="0.4985" style="stop-color:#FEA520"></stop>
				<stop offset="0.739" style="stop-color:#FEB022"></stop>
				<stop offset="1" style="stop-color:#FEB423"></stop>
			</linearGradient>
			<path id="XMLID_188_" class="st73" d="M-0.7,105.3c-1.4,5.7-7,10.3-12.7,10.3s-9.1-4.6-7.7-10.3S-14.1,95-8.4,95     S0.7,99.7-0.7,105.3z"></path>
			
				<linearGradient id="SVGID_13_" gradientUnits="userSpaceOnUse" x1="-888.5552" y1="336.5782" x2="-870.1299" y2="336.5782" gradientTransform="matrix(1 0 0 -1 869.7875 442.4)">
				<stop offset="0" style="stop-color:#FEB423"></stop>
				<stop offset="0.261" style="stop-color:#FEB022"></stop>
				<stop offset="0.5015" style="stop-color:#FEA520"></stop>
				<stop offset="0.734" style="stop-color:#FD921D"></stop>
				<stop offset="0.9602" style="stop-color:#FC7819"></stop>
				<stop offset="1" style="stop-color:#FC7318"></stop>
			</linearGradient>
			<path class="st74" d="M-4.4,96c2.1,1.9,3.2,4.9,2.3,8.4c-1.4,5.7-7,10.3-12.7,10.3c-1.5,0-2.9-0.4-4-0.9c1.4,1.2,3.3,1.9,5.4,1.9     c5.7,0,11.4-4.6,12.7-10.3C0.4,101.2-1.2,97.6-4.4,96z"></path>
			<g id="XMLID_186_">
				<polygon id="XMLID_187_" class="st56" points="-13.3,109.5 -16,105.9 -13.5,103.9 -12.2,105.4 -7,101.2 -5.4,103.2     "></polygon>
			</g>
		</g>
		<g>
			<polygon class="st64" points="89.3,143 93.2,143 92.9,140.6 89,140.6    "></polygon>
			<polygon class="st64" points="90.3,149.4 94.3,149.4 93.9,147 89.9,147    "></polygon>
			<polygon class="st64" points="91.3,155.6 95.3,155.6 94.8,153.2 90.9,153.2    "></polygon>
			<polygon class="st64" points="92.3,162 96.2,162 95.9,159.5 91.9,159.5    "></polygon>
			<polygon class="st64" points="93.3,168.2 97.3,168.2 96.9,165.8 93,165.8    "></polygon>
			<polygon class="st64" points="94.4,174.6 98.3,174.6 97.9,172 93.9,172    "></polygon>
			<polygon class="st64" points="95.3,180.8 99.3,180.8 98.9,178.4 94.9,178.4    "></polygon>
			<polygon class="st64" points="96.3,187.2 100.3,187.2 99.9,184.6 96,184.6    "></polygon>
			<polygon class="st64" points="97.4,193.4 101.3,193.4 100.9,191 97,191    "></polygon>
			<polygon class="st64" points="-12.6,143 -8.7,143 -9.1,140.6 -13,140.6    "></polygon>
			<polygon class="st64" points="-11.6,149.4 -7.7,149.4 -8,147 -12,147    "></polygon>
			<polygon class="st64" points="-10.6,155.6 -6.6,155.6 -7,153.2 -11,153.2    "></polygon>
			<polygon class="st64" points="-9.6,162 -5.6,162 -6,159.5 -10,159.5    "></polygon>
			<polygon class="st64" points="-8.6,168.2 -4.6,168.2 -5.1,165.8 -9,165.8    "></polygon>
			<polygon class="st64" points="-7.6,174.6 -3.7,174.6 -4,172 -7.9,172    "></polygon>
			<polygon class="st64" points="-6.5,180.8 -2.6,180.8 -3,178.4 -6.9,178.4    "></polygon>
			<polygon class="st64" points="-5.5,187.2 -1.6,187.2 -2,184.6 -6,184.6    "></polygon>
			<polygon class="st64" points="-4.6,193.4 -0.6,193.4 -1,191 -5,191    "></polygon>
			<polygon class="st64" points="-7.3,143 4,143 3.6,140.6 -7.7,140.6    "></polygon>
			<polygon class="st64" points="-6.3,149.4 5,149.4 4.6,147 -6.6,147    "></polygon>
			<polygon class="st64" points="-5.2,155.6 6,155.6 5.7,153.2 -5.6,153.2    "></polygon>
			<polygon class="st64" points="-4.2,162 7.1,162 6.7,159.5 -4.7,159.5    "></polygon>
			<polygon class="st64" points="-3.3,168.2 8.1,168.2 7.6,165.8 -3.7,165.8    "></polygon>
			<polygon class="st64" points="-2.3,174.6 9,174.6 8.7,172 -2.6,172    "></polygon>
			<polygon class="st64" points="-1.2,180.8 10.1,180.8 9.7,178.4 -1.6,178.4    "></polygon>
			<polygon class="st64" points="-0.2,187.2 11.1,187.2 10.7,184.6 -0.6,184.6    "></polygon>
			<polygon class="st64" points="0.8,193.4 12.1,193.4 11.7,191 0.4,191    "></polygon>
			<polygon class="st64" points="12.9,143 55.3,143 54.9,140.6 12.5,140.6    "></polygon>
			<polygon class="st64" points="16.3,149.4 68.3,149.4 67.8,147 15.9,147    "></polygon>
			<polygon class="st64" points="17.1,155.6 64.9,155.6 64.5,153.2 16.8,153.2    "></polygon>
			<polygon class="st64" points="23.1,162 77.5,162 77.1,159.5 22.6,159.5    "></polygon>
			
				<linearGradient id="SVGID_14_" gradientUnits="userSpaceOnUse" x1="-21.977" y1="275.3928" x2="24.1287" y2="275.3928" gradientTransform="matrix(-1 0 0 -1 41.4264 442.4)">
				<stop offset="0" style="stop-color:#FC7318"></stop>
				<stop offset="1" style="stop-color:#FEB423"></stop>
			</linearGradient>
			<polygon class="st75" points="17.6,168.2 63.4,168.2 62.9,165.8 17.2,165.8    "></polygon>
			<polygon class="st64" points="25.9,174.6 73.9,174.6 73.6,172 25.4,172    "></polygon>
			<polygon class="st64" points="30.2,180.8 81.8,180.8 81.4,178.4 29.8,178.4    "></polygon>
			<polygon class="st64" points="19.9,187.2 66,187.2 65.6,184.6 19.6,184.6    "></polygon>
			<polygon class="st64" points="22.4,193.4 77.3,193.4 76.9,191 22,191    "></polygon>
			<polygon class="st64" points="56.5,143 86,143 85.6,140.6 56.1,140.6    "></polygon>
			
				<linearGradient id="SVGID_15_" gradientUnits="userSpaceOnUse" x1="-45.5505" y1="294.2334" x2="-27.6066" y2="294.2334" gradientTransform="matrix(-1 0 0 -1 41.4264 442.4)">
				<stop offset="0" style="stop-color:#FC7318"></stop>
				<stop offset="1" style="stop-color:#FEB423"></stop>
			</linearGradient>
			<polygon class="st76" points="69.5,149.4 87,149.4 86.6,147 69,147    "></polygon>
			<polygon class="st64" points="66.3,155.6 88,155.6 87.6,153.2 65.9,153.2    "></polygon>
			
				<linearGradient id="SVGID_16_" gradientUnits="userSpaceOnUse" x1="-47.5635" y1="281.6886" x2="-37.1492" y2="281.6886" gradientTransform="matrix(-1 0 0 -1 41.4264 442.4)">
				<stop offset="0" style="stop-color:#FC7318"></stop>
				<stop offset="1" style="stop-color:#FEB423"></stop>
			</linearGradient>
			<polygon class="st77" points="79,162 89,162 88.6,159.5 78.6,159.5    "></polygon>
			<polygon class="st64" points="64.8,168.2 90,168.2 89.6,165.8 64.4,165.8    "></polygon>
			<polygon class="st64" points="75.2,174.6 91,174.6 90.6,172 74.8,172    "></polygon>
			<polygon class="st64" points="83.3,180.8 92,180.8 91.7,178.4 82.8,178.4    "></polygon>
			
				<linearGradient id="SVGID_17_" gradientUnits="userSpaceOnUse" x1="-51.5897" y1="256.5056" x2="-25.3877" y2="256.5056" gradientTransform="matrix(-1 0 0 -1 41.4264 442.4)">
				<stop offset="0" style="stop-color:#FC7318"></stop>
				<stop offset="1" style="stop-color:#FEB423"></stop>
			</linearGradient>
			<polygon class="st78" points="67.2,187.2 93,187.2 92.6,184.6 66.9,184.6    "></polygon>
			<polygon class="st64" points="78.8,193.4 94,193.4 93.6,191 78.4,191    "></polygon>
		</g>
		<g>
			
				<linearGradient id="SVGID_18_" gradientUnits="userSpaceOnUse" x1="-56.8108" y1="331.0752" x2="16.4707" y2="331.0752" gradientTransform="matrix(-1 0 -0.2343 -1 101.7257 442.4)">
				<stop offset="0" style="stop-color:#E9F1FE"></stop>
				<stop offset="1" style="stop-color:#FFFFFF"></stop>
			</linearGradient>
			<path class="st79" d="M13.2,123h65c1.8,0,3-1.4,2.8-3.2l-2-17c-0.2-1.8-1.8-3.2-3.5-3.2H10.5c-1.8,0-3,1.4-2.8,3.2l2,17.1     C10,121.6,11.5,123,13.2,123z"></path>
			<path class="st2" d="M9.2,100.1c-0.3,0.5-0.4,1-0.3,1.7l2,17c0.2,1.8,1.8,3.2,3.5,3.2h65c0.5,0,0.9-0.1,1.3-0.3     c-0.5,0.8-1.4,1.5-2.5,1.5H13.2c-1.8,0-3.3-1.4-3.5-3.2l-2-17C7.5,101.7,8.2,100.6,9.2,100.1z"></path>
			
				<linearGradient id="SVGID_19_" gradientUnits="userSpaceOnUse" x1="-47.588" y1="339.8893" x2="23.6992" y2="339.8893" gradientTransform="matrix(-1 0 -0.1171 -1 71.1502 442.4)">
				<stop offset="0" style="stop-color:#3457B4"></stop>
				<stop offset="0.2224" style="stop-color:#3A5EB9"></stop>
				<stop offset="0.5521" style="stop-color:#4C72C8"></stop>
				<stop offset="0.9471" style="stop-color:#6893DF"></stop>
				<stop offset="1" style="stop-color:#6C98E3"></stop>
			</linearGradient>
			<path class="st80" d="M10.7,99.8h64.5c1.9,0,3.5,1.5,3.7,3.4l0.3,2.1H8l-0.3-2.1C7.5,101.3,8.8,99.8,10.7,99.8z"></path>
			<path class="st81" d="M9.1,100.2c-0.2,0.5-0.3,0.9-0.3,1.5l0.4,3.5L8,105.7l-0.1-0.9l-0.2-1.7C7.6,101.9,8.2,100.8,9.1,100.2z"></path>
			<path class="st82" d="M64.3,114.4c0.4,3,3.1,5.4,6.1,5.4s5.1-2.4,4.9-5.4c-0.4-3-3.1-5.4-6.1-5.4C66.1,109,64,111.4,64.3,114.4z"></path>
			<polygon class="st83" points="14.6,111 61,111 60.8,109.5 14.4,109.5    "></polygon>
			<polygon class="st83" points="15.2,115.1 61.5,115.1 61.4,113.7 15,113.7    "></polygon>
			<polygon class="st83" points="44.7,119.4 62,119.4 61.8,117.9 44.5,117.9    "></polygon>
			<path class="st84" d="M72.5,102.6c0,0.4,0.4,0.7,0.7,0.7c0.4,0,0.7-0.3,0.7-0.7c0-0.4-0.4-0.7-0.7-0.7     C72.6,101.8,72.4,102.2,72.5,102.6z"></path>
			<path class="st84" d="M69.5,102.6c0,0.4,0.4,0.7,0.7,0.7c0.4,0,0.7-0.3,0.7-0.7c0-0.4-0.4-0.7-0.7-0.7     C69.7,101.8,69.4,102.2,69.5,102.6z"></path>
			<path class="st84" d="M66.4,102.6c0,0.4,0.4,0.7,0.7,0.7c0.4,0,0.7-0.3,0.7-0.7c0-0.4-0.4-0.7-0.7-0.7     C66.7,101.8,66.4,102.2,66.4,102.6z"></path>
		</g>
		<g>
			<path class="st5" d="M15.1,143.2C15.1,143.1,15.1,143.1,15.1,143.2c0-0.1,0-0.1,0-0.2s0-0.1,0-0.2c0-0.1,0-0.2,0-0.3     c0-0.1,0-0.1,0-0.2s0-0.2,0.1-0.2v-0.1c0-0.1,0.1-0.1,0.1-0.2c0-0.1,0.1-0.2,0.2-0.3c0-0.1,0.1-0.1,0.1-0.1     c0.6-0.7,1.4-1.3,2.5-1.3h56.1c2,0,3.7,1.6,4,3.5l7.6,48.1c0.1,0.6,0,1.1-0.2,1.6c0,0.1-0.1,0.2-0.1,0.3c0,0.1-0.1,0.2-0.2,0.3     c0,0.1-0.1,0.2-0.2,0.2c-0.1,0.1-0.1,0.2-0.2,0.2c-0.1,0.1-0.2,0.2-0.3,0.2s-0.1,0.1-0.2,0.1c-0.1,0.1-0.3,0.2-0.5,0.3     c-0.1,0-0.1,0.1-0.2,0.1c-0.1,0.1-0.3,0.1-0.4,0.1c-0.1,0-0.1,0-0.2,0c-0.2,0-0.4,0.1-0.7,0.1H26.7c-0.5,0-0.9-0.1-1.4-0.3     c-0.5-0.2-0.8-0.5-1.2-0.7c-0.7-0.7-1.2-1.5-1.4-2.4l-6.2-39.2l0,0l-1.4-8.9C15.2,143.6,15.1,143.4,15.1,143.2z"></path>
			<path class="st85" d="M15.3,143.3C15.3,143.3,15.3,143.2,15.3,143.3c0-0.1,0-0.1,0-0.2c0-0.1,0-0.1,0-0.2c0-0.1,0-0.2,0-0.3     c0-0.1,0-0.1,0-0.2c0-0.1,0-0.2,0.1-0.2v-0.1c0-0.1,0.1-0.1,0.1-0.2c0-0.1,0.1-0.2,0.2-0.3c0-0.1,0.1-0.1,0.1-0.1     c0.6-0.7,1.4-1.3,2.4-1.3h56c2,0,3.7,1.6,4,3.5l7.5,47.8c0.1,0.6,0,1.1-0.2,1.6c0,0.1-0.1,0.2-0.1,0.3s-0.1,0.2-0.2,0.3     c0,0.1-0.1,0.2-0.2,0.2c-0.1,0.1-0.1,0.2-0.2,0.2c-0.1,0.1-0.2,0.2-0.3,0.2s-0.1,0.1-0.2,0.1c-0.1,0.1-0.3,0.2-0.5,0.3     c-0.1,0-0.1,0.1-0.2,0.1c-0.1,0.1-0.3,0.1-0.4,0.1c-0.1,0-0.1,0-0.2,0c-0.2,0-0.4,0.1-0.7,0.1H26.8c-0.5,0-0.9-0.1-1.4-0.3     c-0.5-0.2-0.8-0.5-1.2-0.7c-0.7-0.7-1.2-1.5-1.4-2.4l-6.2-39.1l0,0l-1.3-8.6C15.3,143.7,15.3,143.5,15.3,143.3z"></path>
			<path class="st86" d="M15.5,143.4L15.5,143.4c0-0.1,0-0.1,0-0.2c0-0.1,0-0.1,0-0.2s0-0.2,0-0.3c0-0.1,0-0.1,0-0.2     c0-0.1,0-0.2,0.1-0.2v-0.1c0-0.1,0.1-0.1,0.1-0.2c0-0.1,0.1-0.2,0.2-0.3c0-0.1,0.1-0.1,0.1-0.1c0.6-0.7,1.4-1.3,2.4-1.3h55.6     c1.9,0,3.7,1.6,4,3.5l7.5,47.7c0.1,0.6,0,1.1-0.2,1.6c0,0.1-0.1,0.2-0.1,0.3s-0.1,0.2-0.2,0.3c0,0.1-0.1,0.2-0.1,0.2     c-0.1,0.1-0.1,0.2-0.2,0.2c-0.1,0.1-0.2,0.2-0.3,0.2c-0.1,0-0.1,0.1-0.2,0.1c-0.1,0.1-0.3,0.2-0.5,0.3c-0.1,0-0.1,0.1-0.2,0.1     c-0.1,0.1-0.3,0.1-0.4,0.1c-0.1,0-0.1,0-0.2,0c-0.2,0-0.4,0.1-0.7,0.1H26.9c-0.5,0-0.9-0.1-1.4-0.3s-0.8-0.5-1.2-0.7     c-0.7-0.7-1.2-1.5-1.4-2.4l-6.1-38.9l0,0l-1.4-8.8C15.5,143.8,15.5,143.6,15.5,143.4z"></path>
			<path class="st87" d="M15.6,143.6C15.6,143.5,15.6,143.5,15.6,143.6c0-0.1,0-0.1,0-0.2c0-0.1,0-0.1,0-0.2c0-0.1,0-0.2,0-0.3     c0-0.1,0-0.1,0-0.2c0-0.1,0-0.2,0.1-0.2v-0.1c0-0.1,0.1-0.1,0.1-0.2c0-0.1,0.1-0.2,0.2-0.3c0-0.1,0.1-0.1,0.1-0.1     c0.5-0.7,1.4-1.3,2.4-1.3h55.3c1.9,0,3.6,1.5,4,3.5l7.5,47.4c0.1,0.6,0,1.1-0.2,1.6c0,0.1-0.1,0.2-0.1,0.3s-0.1,0.2-0.2,0.3     c0,0.1-0.1,0.2-0.1,0.2c-0.1,0.1-0.1,0.2-0.2,0.2c-0.1,0.1-0.2,0.2-0.2,0.2c-0.1,0-0.1,0.1-0.2,0.1c-0.1,0.1-0.3,0.2-0.5,0.3     c-0.1,0-0.1,0.1-0.2,0.1c-0.1,0.1-0.3,0.1-0.4,0.1c-0.1,0-0.1,0-0.2,0c-0.2,0-0.4,0.1-0.7,0.1H27.1c-0.5,0-0.9-0.1-1.4-0.3     c-0.5-0.2-0.8-0.5-1.2-0.7c-0.7-0.7-1.2-1.5-1.4-2.4L17,152.6l0,0l-1.4-8.7C15.6,143.9,15.6,143.7,15.6,143.6z"></path>
			<path class="st88" d="M15.8,143.7C15.8,143.7,15.8,143.6,15.8,143.7C15.8,143.6,15.8,143.6,15.8,143.7c0-0.2,0-0.2,0-0.2     c0-0.1,0-0.2,0-0.3c0-0.1,0-0.1,0-0.2c0-0.1,0-0.2,0.1-0.2v-0.1c0-0.1,0.1-0.1,0.1-0.2c0-0.1,0.1-0.2,0.1-0.3     c0-0.1,0.1-0.1,0.1-0.1c0.5-0.7,1.4-1.3,2.4-1.3h55c1.9,0,3.6,1.5,3.9,3.5l7.4,47.2c0.1,0.6,0,1.1-0.2,1.6c0,0.1-0.1,0.2-0.1,0.3     s-0.1,0.2-0.2,0.3c0,0.1-0.1,0.2-0.1,0.2c-0.1,0.1-0.1,0.2-0.2,0.2c-0.1,0.1-0.2,0.2-0.2,0.2c-0.1,0-0.1,0.1-0.2,0.1     c-0.1,0.1-0.3,0.2-0.5,0.3c-0.1,0-0.1,0.1-0.2,0.1c-0.1,0.1-0.3,0.1-0.4,0.1c-0.1,0-0.1,0-0.2,0c-0.2,0-0.4,0.1-0.6,0.1H27     c-0.5,0-0.9-0.1-1.4-0.3c-0.5-0.2-0.8-0.5-1.2-0.7c-0.7-0.7-1.2-1.5-1.4-2.4l-5.8-38.5l0,0l-1.4-8.7     C15.8,144.1,15.8,143.9,15.8,143.7z"></path>
			<path class="st89" d="M16,143.8C16,143.8,16,143.7,16,143.8C16,143.7,16,143.7,16,143.8c0-0.2,0-0.2,0-0.2c0-0.1,0-0.2,0-0.2     c0-0.1,0-0.1,0-0.2c0-0.1,0-0.2,0.1-0.2v-0.1c0-0.1,0.1-0.1,0.1-0.2c0-0.1,0.1-0.2,0.1-0.3c0-0.1,0.1-0.1,0.1-0.1     c0.5-0.7,1.4-1.2,2.4-1.2h54.8c1.9,0,3.6,1.5,3.9,3.4l7.4,46.9c0.1,0.6,0,1-0.2,1.5c0,0.1-0.1,0.2-0.1,0.3c0,0.1-0.1,0.2-0.2,0.3     c0,0.1-0.1,0.1-0.1,0.2c-0.1,0.1-0.1,0.2-0.2,0.2c-0.1,0.1-0.2,0.2-0.2,0.2c-0.1,0-0.1,0.1-0.2,0.1c-0.1,0.1-0.3,0.2-0.5,0.3     c-0.1,0-0.1,0-0.2,0.1c-0.1,0.1-0.3,0.1-0.4,0.1c-0.1,0-0.1,0-0.2,0c-0.2,0-0.4,0.1-0.6,0.1H27.3c-0.5,0-0.9-0.1-1.4-0.3     c-0.5-0.2-0.8-0.5-1.2-0.7c-0.7-0.7-1.2-1.5-1.4-2.4l-6-38.3l0,0l-1.3-8.6C16,144.2,16,144,16,143.8z"></path>
			<path class="st90" d="M16.1,143.9L16.1,143.9C16.1,143.8,16.1,143.8,16.1,143.9c0-0.2,0-0.2,0-0.2c0-0.1,0-0.2,0-0.2     c0-0.1,0-0.1,0-0.2s0-0.2,0.1-0.2V143c0-0.1,0.1-0.1,0.1-0.2c0-0.1,0.1-0.2,0.1-0.3c0-0.1,0.1-0.1,0.1-0.1     c0.5-0.7,1.4-1.2,2.4-1.2h54.6c1.9,0,3.6,1.5,3.9,3.4l7.3,46.7c0.1,0.6,0,1-0.2,1.5c0,0.1-0.1,0.2-0.1,0.3c0,0.1-0.1,0.2-0.2,0.3     c0,0.1-0.1,0.1-0.1,0.2c-0.1,0.1-0.1,0.1-0.2,0.2c-0.1,0.1-0.2,0.2-0.2,0.2c-0.1,0-0.1,0.1-0.2,0.1c-0.1,0.1-0.3,0.2-0.5,0.3     c-0.1,0-0.1,0-0.2,0.1c-0.1,0.1-0.3,0.1-0.4,0.1c-0.1,0-0.1,0-0.2,0c-0.2,0-0.4,0.1-0.6,0.1H27.4c-0.5,0-0.9-0.1-1.4-0.3     c-0.5-0.2-0.8-0.4-1.2-0.7c-0.7-0.7-1.2-1.5-1.4-2.4l-6-38.1l0,0l-1.3-8.6C16.1,144.2,16.1,144.1,16.1,143.9z"></path>
			<path class="st91" d="M16.3,144.1C16.3,144,16.3,144,16.3,144.1C16.3,144,16.3,144,16.3,144.1c0-0.2,0-0.2,0-0.2     c0-0.1,0-0.2,0-0.2c0-0.1,0-0.1,0-0.2c0-0.1,0-0.2,0.1-0.2v-0.1c0-0.1,0.1-0.1,0.1-0.2c0-0.1,0.1-0.2,0.1-0.3     c0-0.1,0.1-0.1,0.1-0.1c0.5-0.7,1.3-1.2,2.4-1.2h54.3c1.9,0,3.6,1.5,3.9,3.4l7.3,46.5c0.1,0.6,0,1-0.2,1.5c0,0.1-0.1,0.2-0.1,0.3     c0,0.1-0.1,0.2-0.2,0.3c0,0.1-0.1,0.1-0.1,0.2c-0.1,0.1-0.1,0.1-0.2,0.2c-0.1,0.1-0.2,0.2-0.2,0.2c-0.1,0-0.1,0.1-0.2,0.1     c-0.1,0.1-0.3,0.2-0.5,0.3c-0.1,0-0.1,0-0.2,0.1c-0.1,0.1-0.3,0.1-0.4,0.1c-0.1,0-0.1,0-0.2,0c-0.2,0-0.4,0.1-0.6,0.1H27.5     c-0.5,0-0.9-0.1-1.3-0.3c-0.5-0.2-0.8-0.4-1.2-0.7c-0.7-0.7-1.2-1.5-1.4-2.4l-6-38l0,0l-1.3-8.5     C16.3,144.3,16.3,144.2,16.3,144.1z"></path>
			<path class="st92" d="M16.5,144.2C16.5,144.2,16.5,144.1,16.5,144.2C16.5,144.1,16.5,144.1,16.5,144.2c0-0.2,0-0.2,0-0.2     c0-0.1,0-0.2,0-0.2c0-0.1,0-0.1,0-0.2c0-0.1,0-0.2,0.1-0.2v-0.1c0-0.1,0.1-0.1,0.1-0.2c0-0.1,0.1-0.2,0.1-0.3l0.1-0.1     c0.5-0.7,1.3-1.2,2.4-1.2h54c1.9,0,3.5,1.5,3.9,3.4l7.3,46.3c0.1,0.6,0,1-0.1,1.5c0,0.1-0.1,0.2-0.1,0.3s-0.1,0.2-0.2,0.3     c0,0.1-0.1,0.1-0.1,0.2c-0.1,0.1-0.1,0.1-0.2,0.2c-0.1,0.1-0.2,0.2-0.2,0.2c-0.1,0-0.1,0.1-0.2,0.1c-0.1,0.1-0.3,0.2-0.5,0.3     c-0.1,0-0.1,0-0.2,0.1c-0.1,0.1-0.3,0.1-0.4,0.1c-0.1,0-0.1,0-0.2,0c-0.2,0-0.4,0.1-0.6,0.1h-54c-0.5,0-0.9-0.1-1.3-0.3     c-0.5-0.2-0.8-0.4-1.2-0.7c-0.7-0.6-1.2-1.4-1.3-2.3L18,153.3l0,0l-1.3-8.5C16.5,144.5,16.5,144.3,16.5,144.2z"></path>
			<path class="st93" d="M16.7,144.2L16.7,144.2C16.7,144.2,16.7,144.2,16.7,144.2c0-0.2,0-0.2,0-0.2c0-0.1,0-0.2,0-0.2     c0-0.1,0-0.1,0-0.2s0-0.2,0.1-0.2v-0.1c0-0.1,0.1-0.1,0.1-0.2c0-0.1,0.1-0.2,0.1-0.3l0.1-0.1c0.5-0.7,1.3-1.2,2.3-1.2h53.8     c1.9,0,3.5,1.5,3.8,3.4l7.2,46.1c0.1,0.6,0,1-0.1,1.5c0,0.1-0.1,0.2-0.1,0.3c0,0.1-0.1,0.2-0.2,0.3c0,0.1-0.1,0.1-0.1,0.2     c-0.1,0.1-0.1,0.1-0.2,0.2c-0.1,0.1-0.2,0.2-0.2,0.2c-0.1,0-0.1,0.1-0.2,0.1c-0.1,0.1-0.3,0.2-0.5,0.3c-0.1,0-0.1,0-0.2,0.1     c-0.1,0.1-0.3,0.1-0.4,0.1c-0.1,0-0.1,0-0.2,0c-0.2,0-0.4,0.1-0.6,0.1H27.8c-0.5,0-0.9-0.1-1.3-0.3c-0.5-0.2-0.8-0.4-1.2-0.7     c-0.7-0.6-1.2-1.4-1.3-2.3l-5.9-37.6l0,0l-1.3-8.5C16.7,144.6,16.7,144.4,16.7,144.2z"></path>
			<path class="st94" d="M16.9,144.3L16.9,144.3C16.9,144.2,16.9,144.2,16.9,144.3c0-0.2,0-0.2,0-0.2c0-0.1,0-0.2,0-0.2     c0-0.1,0-0.1,0-0.2c0-0.1,0-0.2,0.1-0.2v-0.1c0-0.1,0.1-0.1,0.1-0.2s0.1-0.2,0.1-0.3l0.1-0.1c0.5-0.7,1.3-1.2,2.3-1.2H73     c1.9,0,3.5,1.5,3.8,3.4l7.2,45.8c0.1,0.6,0,1-0.1,1.5c0,0.1-0.1,0.2-0.1,0.3c0,0.1-0.1,0.2-0.2,0.3c0,0.1-0.1,0.1-0.1,0.2     c-0.1,0.1-0.1,0.1-0.2,0.2c-0.1,0.1-0.2,0.2-0.2,0.2c-0.1,0-0.1,0.1-0.2,0.1c-0.1,0.1-0.3,0.2-0.5,0.3c-0.1,0-0.1,0-0.2,0.1     c-0.1,0.1-0.3,0.1-0.4,0.1c-0.1,0-0.1,0-0.2,0c-0.2,0-0.4,0.1-0.6,0.1H27.9c-0.5,0-0.9-0.1-1.3-0.3c-0.5-0.2-0.8-0.4-1.1-0.7     c-0.7-0.6-1.2-1.4-1.3-2.3l-6-37.5l0,0l-1.3-8.4C16.9,144.7,16.9,144.5,16.9,144.3z"></path>
			<path class="st95" d="M17,144.5C17,144.4,17,144.4,17,144.5C17,144.4,17,144.4,17,144.5c0-0.2,0-0.2,0-0.2c0-0.1,0-0.2,0-0.2     c0-0.1,0-0.1,0-0.2s0-0.2,0.1-0.2v-0.1c0-0.1,0.1-0.1,0.1-0.2c0-0.1,0.1-0.2,0.1-0.3l0.1-0.1c0.5-0.7,1.3-1.2,2.3-1.2h53.2     c1.9,0,3.5,1.5,3.8,3.3l7.2,45.6c0.1,0.6,0,1-0.1,1.5c0,0.1-0.1,0.2-0.1,0.3c0,0.1-0.1,0.2-0.2,0.3c0,0.1-0.1,0.1-0.1,0.2     c-0.1,0.1-0.1,0.1-0.2,0.2c-0.1,0.1-0.2,0.2-0.2,0.2c-0.1,0-0.1,0.1-0.2,0.1c-0.1,0.1-0.3,0.2-0.5,0.3c-0.1,0-0.1,0-0.2,0.1     c-0.1,0.1-0.3,0.1-0.4,0.1c-0.1,0-0.1,0-0.2,0c-0.2,0-0.4,0.1-0.6,0.1H27.9c-0.5,0-0.9-0.1-1.3-0.3c-0.5-0.2-0.8-0.4-1.1-0.7     c-0.7-0.6-1.2-1.4-1.3-2.3l-5.9-37.2l0,0l-1.3-8.4C17,144.8,17,144.7,17,144.5z"></path>
			<path class="st96" d="M17.1,144.6C17.1,144.6,17.1,144.5,17.1,144.6C17.1,144.5,17.1,144.5,17.1,144.6v-0.2c0-0.1,0-0.2,0-0.2     c0-0.1,0-0.1,0-0.2c0-0.1,0-0.2,0.1-0.2v-0.1c0-0.1,0.1-0.1,0.1-0.2c0-0.1,0.1-0.2,0.1-0.3l0.1-0.1c0.5-0.7,1.3-1.2,2.3-1.2h52.9     c1.8,0,3.5,1.5,3.8,3.3l7.1,45.3c0.1,0.6,0,1-0.1,1.5c0,0.1-0.1,0.2-0.1,0.3s-0.1,0.2-0.2,0.3c0,0.1-0.1,0.1-0.1,0.2     c-0.1,0.1-0.1,0.1-0.2,0.2c-0.1,0.1-0.2,0.2-0.2,0.2c-0.1,0-0.1,0.1-0.2,0.1c-0.1,0.1-0.3,0.2-0.5,0.3c-0.1,0-0.1,0-0.2,0.1     c-0.1,0.1-0.3,0.1-0.4,0.1c-0.1,0-0.1,0-0.2,0c-0.2,0-0.4,0.1-0.6,0.1H28.1c-0.5,0-0.9-0.1-1.3-0.3c-0.4-0.2-0.8-0.4-1.1-0.7     c-0.7-0.6-1.2-1.4-1.3-2.3l-5.9-37l0,0l-1.3-8.3C17.1,145,17.1,144.8,17.1,144.6z"></path>
			<path class="st97" d="M17.3,144.7L17.3,144.7C17.3,144.6,17.3,144.6,17.3,144.7v-0.2c0-0.1,0-0.2,0-0.2c0-0.1,0-0.1,0-0.2     c0-0.1,0-0.2,0.1-0.2v-0.1c0-0.1,0.1-0.1,0.1-0.2s0.1-0.2,0.1-0.3l0.1-0.1c0.5-0.7,1.3-1.2,2.3-1.2h52.7c1.8,0,3.5,1.5,3.7,3.3     l7.1,45.1c0.1,0.6,0,1-0.1,1.5c0,0.1-0.1,0.2-0.1,0.3c0,0.1-0.1,0.2-0.2,0.3c0,0.1-0.1,0.1-0.1,0.2c-0.1,0.1-0.1,0.1-0.2,0.2     c-0.1,0.1-0.2,0.2-0.2,0.2c-0.1,0-0.1,0.1-0.2,0.1c-0.1,0.1-0.3,0.2-0.5,0.3c-0.1,0-0.1,0-0.2,0.1c-0.1,0.1-0.3,0.1-0.4,0.1     c-0.1,0-0.1,0-0.2,0c-0.2,0-0.4,0.1-0.6,0.1H28.2c-0.5,0-0.9-0.1-1.3-0.3c-0.4-0.2-0.8-0.4-1.1-0.7c-0.7-0.6-1.2-1.4-1.3-2.3     l-5.8-36.8l0,0l-1.3-8.3C17.3,145.1,17.3,144.9,17.3,144.7z"></path>
			<path class="st98" d="M17.5,144.8L17.5,144.8C17.5,144.7,17.5,144.7,17.5,144.8v-0.2c0-0.1,0-0.2,0-0.2c0-0.1,0-0.1,0-0.2     c0-0.1,0-0.2,0.1-0.2V144c0-0.1,0.1-0.1,0.1-0.2c0-0.1,0.1-0.2,0.1-0.3l0.1-0.1c0.5-0.7,1.3-1.2,2.3-1.2h52.4     c1.8,0,3.5,1.5,3.7,3.3l7,44.9c0.1,0.6,0,1-0.1,1.5c0,0.1-0.1,0.2-0.1,0.3s-0.1,0.2-0.1,0.3s-0.1,0.1-0.1,0.2     c-0.1,0.1-0.1,0.1-0.2,0.2c-0.1,0.1-0.2,0.2-0.2,0.2c-0.1,0-0.1,0.1-0.2,0.1c-0.1,0.1-0.3,0.2-0.5,0.3c-0.1,0-0.1,0-0.2,0.1     c-0.1,0.1-0.3,0.1-0.4,0.1c-0.1,0-0.1,0-0.2,0c-0.2,0-0.4,0.1-0.6,0.1H28.3c-0.5,0-0.9-0.1-1.3-0.3s-0.8-0.4-1.1-0.7     c-0.7-0.6-1.2-1.4-1.3-2.3l-5.8-36.7l0,0l-1.3-8.2C17.5,145.2,17.5,145,17.5,144.8z"></path>
			<path class="st99" d="M17.7,145C17.7,144.9,17.7,144.9,17.7,145C17.7,144.9,17.7,144.9,17.7,145v-0.2c0-0.1,0-0.2,0-0.2     c0-0.1,0-0.1,0-0.2c0-0.1,0-0.2,0.1-0.2v-0.1c0-0.1,0.1-0.1,0.1-0.2s0.1-0.2,0.1-0.3l0.1-0.1c0.5-0.7,1.3-1.2,2.3-1.2h52.1     c1.8,0,3.5,1.5,3.7,3.3l7,44.7c0.1,0.6,0,1-0.1,1.5c0,0.1-0.1,0.2-0.1,0.3c0,0.1-0.1,0.2-0.1,0.3c0,0.1-0.1,0.1-0.1,0.2     c-0.1,0.1-0.1,0.1-0.2,0.2c-0.1,0.1-0.2,0.2-0.2,0.2c-0.1,0-0.1,0.1-0.2,0.1c-0.1,0.1-0.3,0.2-0.5,0.3c-0.1,0-0.1,0-0.2,0.1     c-0.1,0.1-0.3,0.1-0.4,0.1c-0.1,0-0.1,0-0.2,0c-0.2,0-0.4,0.1-0.6,0.1H28.4c-0.5,0-0.8-0.1-1.3-0.3c-0.4-0.2-0.8-0.4-1.1-0.7     c-0.7-0.6-1.1-1.4-1.3-2.2L19,153.9l0,0l-1.3-8.2C17.7,145.3,17.7,145.2,17.7,145z"></path>
			<path class="st100" d="M17.8,145.1C17.8,145.1,17.9,145,17.8,145.1C17.8,145,17.8,145,17.8,145.1v-0.2c0-0.1,0-0.2,0-0.2     c0-0.1,0-0.1,0-0.2c0-0.1,0-0.2,0.1-0.2v-0.1c0-0.1,0.1-0.1,0.1-0.2c0-0.1,0.1-0.2,0.1-0.3l0.1-0.1c0.5-0.7,1.3-1.2,2.3-1.2h51.9     c1.8,0,3.5,1.4,3.7,3.2l7,44.4c0.1,0.6,0,1-0.1,1.5c0,0.1-0.1,0.2-0.1,0.3c0,0.1-0.1,0.2-0.1,0.3c0,0.1-0.1,0.1-0.1,0.2     c-0.1,0.1-0.1,0.1-0.2,0.2c-0.1,0.1-0.2,0.2-0.2,0.2c-0.1,0-0.1,0.1-0.2,0.1c-0.1,0.1-0.3,0.2-0.4,0.3c-0.1,0-0.1,0-0.2,0.1     c-0.1,0.1-0.3,0.1-0.4,0.1c-0.1,0-0.1,0-0.2,0c-0.2,0-0.4,0.1-0.6,0.1h-52c-0.5,0-0.8-0.1-1.3-0.3c-0.4-0.2-0.8-0.4-1.1-0.7     c-0.7-0.6-1.1-1.4-1.3-2.2l-5.7-36.3l0,0l-1.3-8.1C17.9,145.5,17.8,145.3,17.8,145.1z"></path>
			<path class="st101" d="M18,145.2L18,145.2C18,145.1,18,145.1,18,145.2V145c0-0.1,0-0.2,0-0.2c0-0.1,0-0.1,0-0.2     c0-0.1,0-0.2,0.1-0.2v-0.1c0-0.1,0.1-0.1,0.1-0.2c0-0.1,0.1-0.2,0.1-0.3l0.1-0.1c0.5-0.7,1.3-1.2,2.2-1.2h51.6     c1.8,0,3.5,1.4,3.7,3.2l6.9,44.2c0.1,0.6,0,1-0.1,1.4c0,0.1-0.1,0.2-0.1,0.3c0,0.1-0.1,0.2-0.1,0.3c0,0.1-0.1,0.1-0.1,0.2     c-0.1,0.1-0.1,0.1-0.2,0.2c-0.1,0.1-0.2,0.2-0.2,0.2c-0.1,0-0.1,0.1-0.2,0.1c-0.1,0.1-0.3,0.2-0.4,0.3c-0.1,0-0.1,0-0.2,0.1     c-0.1,0.1-0.3,0.1-0.4,0.1c-0.1,0-0.1,0-0.2,0c-0.2,0-0.4,0.1-0.6,0.1H28.7c-0.5,0-0.8-0.1-1.3-0.3c-0.4-0.2-0.7-0.4-1.1-0.7     c-0.7-0.6-1.1-1.4-1.3-2.2l-5.7-36.1l0,0l-1.3-8.1C18,145.6,18,145.4,18,145.2z"></path>
			<path class="st102" d="M18.2,145.3L18.2,145.3C18.2,145.2,18.2,145.2,18.2,145.3v-0.2c0-0.1,0-0.2,0-0.2c0-0.1,0-0.1,0-0.2     c0-0.1,0-0.2,0.1-0.2v-0.1c0-0.1,0.1-0.1,0.1-0.2c0-0.1,0.1-0.2,0.1-0.3l0.1-0.1c0.5-0.7,1.3-1.2,2.2-1.2h51.3     c1.8,0,3.4,1.4,3.6,3.2l6.9,43.9c0.1,0.6,0,1-0.1,1.4c0,0.1-0.1,0.2-0.1,0.3c0,0.1-0.1,0.2-0.1,0.3c0,0.1-0.1,0.1-0.1,0.2     c-0.1,0.1-0.1,0.1-0.2,0.2c-0.1,0.1-0.2,0.1-0.2,0.2c-0.1,0-0.1,0.1-0.2,0.1c-0.1,0.1-0.3,0.2-0.4,0.3c-0.1,0-0.1,0-0.2,0.1     c-0.1,0.1-0.3,0.1-0.4,0.1c-0.1,0-0.1,0-0.2,0c-0.2,0-0.4,0.1-0.6,0.1H28.7c-0.5,0-0.8-0.1-1.3-0.3c-0.4-0.2-0.7-0.4-1.1-0.7     c-0.7-0.6-1.1-1.4-1.3-2.2l-5.6-35.9l0,0l-1.3-8C18.2,145.6,18.2,145.5,18.2,145.3z"></path>
			<path class="st103" d="M18.4,145.5C18.4,145.4,18.4,145.4,18.4,145.5C18.4,145.4,18.4,145.4,18.4,145.5v-0.2c0-0.1,0-0.2,0-0.2     c0-0.1,0-0.1,0-0.2c0-0.1,0-0.2,0.1-0.2v-0.1c0-0.1,0.1-0.1,0.1-0.2c0-0.1,0.1-0.2,0.1-0.3l0.1-0.1c0.5-0.7,1.3-1.2,2.2-1.2h51     c1.8,0,3.4,1.4,3.6,3.2l6.8,43.7c0.1,0.6,0,1-0.1,1.4c0,0.1-0.1,0.2-0.1,0.3c0,0.1-0.1,0.2-0.1,0.2c0,0.1-0.1,0.1-0.1,0.2     c-0.1,0.1-0.1,0.1-0.2,0.2c-0.1,0.1-0.1,0.1-0.2,0.2c-0.1,0-0.1,0.1-0.2,0.1c-0.1,0.1-0.3,0.2-0.4,0.3c-0.1,0-0.1,0-0.2,0.1     c-0.1,0.1-0.3,0.1-0.4,0.1c-0.1,0-0.1,0-0.2,0c-0.2,0-0.4,0.1-0.6,0.1H28.9c-0.5,0-0.8-0.1-1.3-0.3c-0.4-0.2-0.7-0.4-1.1-0.7     c-0.7-0.6-1.1-1.4-1.3-2.2l-5.6-35.7l0,0l-1.2-8C18.4,145.7,18.4,145.6,18.4,145.5z"></path>
			<path class="st104" d="M18.5,145.6C18.5,145.6,18.5,145.5,18.5,145.6C18.5,145.5,18.5,145.5,18.5,145.6v-0.2c0-0.1,0-0.2,0-0.2     c0-0.1,0-0.1,0-0.2s0-0.2,0.1-0.2v-0.1c0-0.1,0.1-0.1,0.1-0.2c0-0.1,0.1-0.2,0.1-0.3l0.1-0.1c0.5-0.7,1.3-1.1,2.2-1.1h50.7     c1.8,0,3.4,1.4,3.6,3.2l6.8,43.5c0.1,0.6,0,1-0.1,1.4c0,0.1-0.1,0.2-0.1,0.3c0,0.1-0.1,0.2-0.1,0.2c0,0.1-0.1,0.1-0.1,0.2     c-0.1,0.1-0.1,0.1-0.2,0.2c-0.1,0.1-0.1,0.1-0.2,0.2c-0.1,0-0.1,0.1-0.2,0.1c-0.1,0.1-0.3,0.2-0.4,0.3c-0.1,0-0.1,0-0.2,0.1     c-0.1,0.1-0.3,0.1-0.4,0.1c-0.1,0-0.1,0-0.2,0c-0.2,0-0.4,0.1-0.6,0.1H29c-0.5,0-0.8-0.1-1.3-0.3c-0.4-0.2-0.7-0.4-1.1-0.7     c-0.7-0.6-1.1-1.4-1.3-2.2L19.7,154l0,0l-1.1-8C18.5,145.9,18.5,145.7,18.5,145.6z"></path>
			<path class="st105" d="M18.7,145.6L18.7,145.6C18.7,145.6,18.7,145.6,18.7,145.6v-0.2c0-0.1,0-0.2,0-0.2c0-0.1,0-0.1,0-0.2     c0-0.1,0-0.2,0.1-0.2v-0.1c0-0.1,0.1-0.1,0.1-0.2c0-0.1,0.1-0.2,0.1-0.3l0.1-0.1c0.5-0.7,1.2-1.1,2.2-1.1h50.6     c1.8,0,3.4,1.4,3.6,3.2l6.8,43.3c0.1,0.5,0,1-0.1,1.4c0,0.1-0.1,0.2-0.1,0.3s-0.1,0.2-0.1,0.2c0,0.1-0.1,0.1-0.1,0.2     c-0.1,0.1-0.1,0.1-0.2,0.2c-0.1,0.1-0.1,0.1-0.2,0.2c-0.1,0-0.1,0.1-0.1,0.1c-0.1,0.1-0.3,0.2-0.4,0.3c-0.1,0-0.1,0-0.2,0.1     c-0.1,0.1-0.3,0.1-0.4,0.1c-0.1,0-0.1,0-0.2,0c-0.2,0-0.4,0.1-0.6,0.1H29.1c-0.5,0-0.8-0.1-1.2-0.3c-0.4-0.2-0.7-0.4-1.1-0.7     c-0.7-0.6-1.1-1.3-1.3-2.2l-5.5-35.3l0,0l-1.2-7.9C18.7,146,18.7,145.8,18.7,145.6z"></path>
			<path class="st106" d="M18.8,145.8C18.8,145.7,18.8,145.7,18.8,145.8C18.8,145.7,18.8,145.7,18.8,145.8v-0.2c0-0.1,0-0.2,0-0.2     c0-0.1,0-0.1,0-0.1c0-0.1,0-0.1,0.1-0.2v-0.1c0-0.1,0.1-0.1,0.1-0.2c0-0.1,0.1-0.2,0.1-0.3l0.1-0.1c0.5-0.7,1.2-1.1,2.2-1.1h50.3     c1.7,0,3.4,1.4,3.6,3.1l6.7,43.1c0.1,0.5,0,1-0.1,1.4c0,0.1-0.1,0.2-0.1,0.3s-0.1,0.2-0.1,0.2c0,0.1-0.1,0.1-0.1,0.2     c-0.1,0.1-0.1,0.1-0.2,0.2c-0.1,0.1-0.1,0.1-0.2,0.2c-0.1,0-0.1,0.1-0.1,0.1c-0.1,0.1-0.3,0.2-0.4,0.3c-0.1,0-0.1,0-0.2,0.1     c-0.1,0-0.2,0.1-0.4,0.1c-0.1,0-0.1,0-0.2,0c-0.2,0-0.4,0.1-0.6,0.1H29.3c-0.5,0-0.8-0.1-1.2-0.3c-0.4-0.2-0.7-0.4-1.1-0.7     c-0.7-0.6-1.1-1.3-1.2-2.2l-5.5-35.2l0,0l-1.2-7.9C18.8,146.1,18.8,145.9,18.8,145.8z"></path>
			<path class="st107" d="M19,145.9C19,145.9,19,145.8,19,145.9C19,145.8,19,145.8,19,145.9v-0.2c0-0.1,0-0.2,0-0.2     c0-0.1,0-0.1,0-0.1c0-0.1,0-0.1,0.1-0.2v-0.1c0-0.1,0.1-0.1,0.1-0.2c0-0.1,0.1-0.2,0.1-0.3l0.1-0.1c0.5-0.7,1.2-1.1,2.2-1.1h50     c1.7,0,3.4,1.4,3.5,3.1l6.7,42.8c0.1,0.5,0,0.9-0.1,1.4c0,0.1-0.1,0.2-0.1,0.3c0,0.1-0.1,0.2-0.1,0.2c0,0.1-0.1,0.1-0.1,0.2     c-0.1,0.1-0.1,0.1-0.2,0.2c-0.1,0.1-0.1,0.1-0.2,0.2c-0.1,0-0.1,0.1-0.1,0.1c-0.1,0.1-0.3,0.2-0.4,0.3c-0.1,0-0.1,0-0.2,0.1     c-0.1,0-0.2,0.1-0.4,0.1c-0.1,0-0.1,0-0.2,0c-0.2,0-0.4,0.1-0.6,0.1h-50c-0.5,0-0.8-0.1-1.2-0.3c-0.4-0.2-0.7-0.4-1.1-0.7     c-0.7-0.6-1.1-1.3-1.2-2.1l-5.5-35l0,0l-1.2-8C19,146.2,19,146.1,19,145.9z"></path>
			<path class="st108" d="M19.2,146L19.2,146C19.2,145.9,19.2,145.9,19.2,146v-0.2c0-0.1,0-0.2,0-0.2c0-0.1,0-0.1,0-0.1     c0-0.1,0-0.1,0.1-0.2v-0.1c0-0.1,0.1-0.1,0.1-0.2c0-0.1,0.1-0.2,0.1-0.3l0.1-0.1c0.5-0.7,1.2-1.1,2.2-1.1h49.7     c1.7,0,3.3,1.4,3.5,3.1l6.7,42.6c0.1,0.5,0,0.9-0.1,1.4c0,0.1-0.1,0.2-0.1,0.3c0,0.1-0.1,0.2-0.1,0.2c0,0.1-0.1,0.1-0.1,0.2     c-0.1,0.1-0.1,0.1-0.2,0.2c-0.1,0.1-0.1,0.1-0.2,0.2l-0.1,0.1c-0.1,0.1-0.3,0.2-0.4,0.3c-0.1,0-0.1,0-0.2,0.1     c-0.1,0-0.2,0.1-0.4,0.1c-0.1,0-0.1,0-0.2,0c-0.2,0-0.4,0.1-0.6,0.1H29.5c-0.5,0-0.8-0.1-1.2-0.3c-0.4-0.2-0.7-0.4-1.1-0.7     c-0.7-0.6-1.1-1.3-1.2-2.1l-5.4-34.8l0,0l-1.2-7.8C19.2,146.4,19.2,146.2,19.2,146z"></path>
			<path class="st109" d="M19.4,146.1L19.4,146.1C19.4,146,19.4,146,19.4,146.1v-0.2c0-0.1,0-0.2,0-0.2c0-0.1,0-0.1,0-0.1     c0-0.1,0-0.1,0.1-0.2v-0.1c0-0.1,0.1-0.1,0.1-0.2c0-0.1,0.1-0.2,0.1-0.3l0.1-0.1c0.5-0.7,1.2-1.1,2.1-1.1h49.4     c1.7,0,3.3,1.4,3.5,3.1l6.6,42.3c0.1,0.5,0,0.9-0.1,1.4c0,0.1-0.1,0.2-0.1,0.3c0,0.1-0.1,0.2-0.1,0.2c0,0.1-0.1,0.1-0.1,0.2     c-0.1,0.1-0.1,0.1-0.2,0.2c-0.1,0.1-0.1,0.1-0.2,0.2l-0.1,0.1c-0.1,0.1-0.3,0.2-0.4,0.3c-0.1,0-0.1,0-0.2,0.1     c-0.1,0-0.2,0.1-0.4,0.1c-0.1,0-0.1,0-0.2,0c-0.2,0-0.4,0.1-0.6,0.1H29.5c-0.5,0-0.8-0.1-1.2-0.3c-0.4-0.2-0.7-0.4-1.1-0.7     c-0.7-0.6-1.1-1.3-1.2-2.1l-5.4-34.7l0,0l-1.2-7.7C19.4,146.5,19.4,146.3,19.4,146.1z"></path>
			<path class="st110" d="M19.6,146.3C19.6,146.2,19.6,146.2,19.6,146.3C19.6,146.2,19.6,146.2,19.6,146.3v-0.2c0-0.1,0-0.2,0-0.2     v-0.1c0-0.1,0-0.1,0.1-0.2v-0.1c0-0.1,0.1-0.1,0.1-0.2c0-0.1,0.1-0.2,0.1-0.3l0.1-0.1c0.5-0.7,1.2-1.1,2.1-1.1h49.2     c1.7,0,3.3,1.4,3.5,3.1l6.6,42.2c0.1,0.5,0,0.9-0.1,1.4c0,0.1-0.1,0.2-0.1,0.3c0,0.1-0.1,0.2-0.1,0.2c0,0.1-0.1,0.1-0.1,0.2     c-0.1,0.1-0.1,0.1-0.2,0.2c-0.1,0.1-0.1,0.1-0.2,0.2l-0.1,0.1c-0.1,0.1-0.3,0.2-0.4,0.3c-0.1,0-0.1,0-0.2,0.1     c-0.1,0-0.2,0.1-0.4,0.1c-0.1,0-0.1,0-0.2,0c-0.2,0-0.4,0.1-0.6,0.1H29.7c-0.5,0-0.8-0.1-1.2-0.3c-0.4-0.2-0.7-0.4-1-0.7     c-0.7-0.6-1.1-1.3-1.2-2.1l-5.4-34.4l0,0l-1.2-7.7C19.6,146.6,19.6,146.4,19.6,146.3z"></path>
			<path class="st111" d="M19.7,146.4C19.7,146.4,19.7,146.3,19.7,146.4C19.7,146.3,19.7,146.3,19.7,146.4v-0.2c0-0.1,0-0.2,0-0.2     v-0.1c0-0.1,0-0.1,0.1-0.2v-0.1c0-0.1,0.1-0.1,0.1-0.2c0-0.1,0.1-0.2,0.1-0.3l0.1-0.1c0.5-0.7,1.2-1.1,2.1-1.1h48.9     c1.7,0,3.3,1.4,3.5,3l6.5,41.9c0.1,0.5,0,0.9-0.1,1.4c0,0.1-0.1,0.2-0.1,0.3s-0.1,0.2-0.1,0.2c0,0.1-0.1,0.1-0.1,0.2     c-0.1,0.1-0.1,0.1-0.2,0.2c-0.1,0.1-0.1,0.1-0.2,0.2l-0.1,0.1c-0.1,0.1-0.3,0.2-0.4,0.3c-0.1,0-0.1,0-0.2,0.1     c-0.1,0-0.2,0.1-0.4,0.1c-0.1,0-0.1,0-0.2,0c-0.2,0-0.4,0.1-0.6,0.1H29.8c-0.4,0-0.8-0.1-1.2-0.3c-0.4-0.2-0.7-0.4-1-0.7     c-0.7-0.6-1.1-1.3-1.2-2.1L21,154.5l0,0l-1.2-7.6C19.8,146.7,19.7,146.6,19.7,146.4z"></path>
			<path class="st112" d="M19.8,146.5L19.8,146.5C19.8,146.4,19.8,146.4,19.8,146.5v-0.2c0-0.1,0-0.1,0-0.2V146c0-0.1,0-0.1,0.1-0.2     v-0.1c0-0.1,0.1-0.1,0.1-0.2c0-0.1,0.1-0.2,0.1-0.3l0.1-0.1c0.5-0.7,1.2-1.1,2.1-1.1H71c1.7,0,3.3,1.3,3.5,3l6.5,41.7     c0.1,0.5,0,0.9-0.1,1.4c0,0.1-0.1,0.2-0.1,0.3s-0.1,0.2-0.1,0.2c0,0.1-0.1,0.1-0.1,0.2c-0.1,0.1-0.1,0.1-0.2,0.2     c-0.1,0.1-0.1,0.1-0.2,0.2l-0.1,0.1c-0.1,0.1-0.3,0.2-0.4,0.2c-0.1,0-0.1,0-0.2,0.1c-0.1,0-0.2,0.1-0.4,0.1c-0.1,0-0.1,0-0.2,0     c-0.2,0-0.4,0.1-0.6,0.1H29.9c-0.4,0-0.8-0.1-1.2-0.3s-0.7-0.4-1-0.7c-0.7-0.6-1.1-1.3-1.2-2.1l-5.3-34l0,0l-1.2-7.6     C19.8,146.9,19.8,146.7,19.8,146.5z"></path>
			<path class="st113" d="M20,146.6L20,146.6C20,146.5,20,146.5,20,146.6v-0.2c0-0.1,0-0.1,0-0.2v-0.1c0-0.1,0-0.1,0.1-0.2v-0.1     c0-0.1,0.1-0.1,0.1-0.2c0-0.1,0.1-0.2,0.1-0.3l0.1-0.1c0.5-0.7,1.2-1.1,2.1-1.1h48.3c1.7,0,3.2,1.3,3.5,3l6.5,41.4     c0.1,0.5,0,0.9-0.1,1.4c0,0.1-0.1,0.2-0.1,0.3s-0.1,0.2-0.1,0.2c0,0.1-0.1,0.1-0.1,0.2c-0.1,0.1-0.1,0.1-0.2,0.2     c-0.1,0.1-0.1,0.1-0.2,0.2l-0.1,0.1c-0.1,0.1-0.3,0.2-0.4,0.2c-0.1,0-0.1,0-0.2,0.1c-0.1,0-0.2,0.1-0.4,0.1c-0.1,0-0.1,0-0.2,0     c-0.2,0-0.4,0.1-0.6,0.1H30c-0.4,0-0.8-0.1-1.2-0.3s-0.7-0.4-1-0.7c-0.7-0.6-1.1-1.3-1.2-2.1l-5.3-33.9l0,0l-1.2-7.5     C20,147,20,146.8,20,146.6z"></path>
			<path class="st114" d="M20.2,146.8C20.2,146.7,20.2,146.7,20.2,146.8C20.2,146.7,20.2,146.7,20.2,146.8v-0.2c0-0.1,0-0.1,0-0.2     v-0.1c0-0.1,0-0.1,0.1-0.2V146c0-0.1,0.1-0.1,0.1-0.2c0-0.1,0.1-0.2,0.1-0.3l0.1-0.1c0.5-0.7,1.2-1.1,2.1-1.1h48.1     c1.7,0,3.2,1.3,3.5,3l6.4,41.2c0.1,0.5,0,0.9-0.1,1.3c0,0.1-0.1,0.2-0.1,0.3c0,0.1-0.1,0.2-0.1,0.2c0,0.1-0.1,0.1-0.1,0.2     c-0.1,0.1-0.1,0.1-0.2,0.2c-0.1,0.1-0.1,0.1-0.2,0.2l-0.1,0.1c-0.1,0.1-0.3,0.2-0.4,0.2c-0.1,0-0.1,0-0.2,0.1     c-0.1,0-0.2,0.1-0.4,0.1c-0.1,0-0.1,0-0.2,0c-0.2,0-0.4,0.1-0.6,0.1H30.1c-0.4,0-0.8-0.1-1.2-0.3c-0.4-0.2-0.7-0.4-1-0.7     c-0.7-0.6-1.1-1.3-1.2-2.1l-5.3-33.7l0,0l-1.2-7.6C20.2,147,20.2,146.9,20.2,146.8z"></path>
			<path class="st115" d="M20.4,146.9C20.4,146.9,20.4,146.8,20.4,146.9C20.4,146.8,20.4,146.8,20.4,146.9v-0.2c0-0.1,0-0.1,0-0.2     v-0.1c0-0.1,0-0.1,0.1-0.2v-0.1c0-0.1,0.1-0.1,0.1-0.2s0.1-0.2,0.1-0.3l0.1-0.1c0.5-0.7,1.2-1.1,2.1-1.1h47.8     c1.7,0,3.2,1.3,3.5,3l6.4,40.9c0.1,0.5,0,0.9-0.1,1.3c0,0.1-0.1,0.2-0.1,0.3c0,0.1-0.1,0.2-0.1,0.2c0,0.1-0.1,0.1-0.1,0.2     c-0.1,0.1-0.1,0.1-0.2,0.2c-0.1,0.1-0.1,0.1-0.2,0.2l-0.1,0.1c-0.1,0.1-0.3,0.2-0.4,0.2c-0.1,0-0.1,0-0.2,0.1     c-0.1,0-0.2,0.1-0.4,0.1c-0.1,0-0.1,0-0.2,0c-0.2,0-0.4,0.1-0.6,0.1H30.3c-0.4,0-0.8-0.1-1.2-0.2c-0.4-0.2-0.7-0.4-1-0.7     c-0.7-0.6-1-1.3-1.2-2.1l-5.2-33.5l0,0l-1.2-7.6C20.4,147.1,20.4,147,20.4,146.9z"></path>
			<path class="st116" d="M20.6,147L20.6,147C20.6,146.9,20.6,146.9,20.6,147v-0.2c0-0.1,0-0.1,0-0.2v-0.1c0-0.1,0-0.1,0.1-0.2v-0.1     c0-0.1,0-0.1,0.1-0.2c0-0.1,0.1-0.2,0.1-0.3l0.1-0.1c0.5-0.7,1.2-1.1,2.1-1.1h47.6c1.6,0,3.2,1.3,3.5,3l6.3,40.8     c0.1,0.5,0,0.9-0.1,1.3c0,0.1-0.1,0.2-0.1,0.3c0,0.1-0.1,0.2-0.1,0.2c0,0.1-0.1,0.1-0.1,0.2c-0.1,0.1-0.1,0.1-0.2,0.2     c-0.1,0.1-0.1,0.1-0.2,0.2l-0.1,0.1c-0.1,0.1-0.3,0.2-0.4,0.2c-0.1,0-0.1,0-0.2,0.1c-0.1,0-0.2,0.1-0.4,0.1c-0.1,0-0.1,0-0.2,0     c-0.2,0-0.4,0.1-0.6,0.1H30.4c-0.4,0-0.8-0.1-1.2-0.2c-0.4-0.2-0.7-0.4-1-0.7c-0.7-0.6-1-1.3-1.2-2.1L21.7,155l0,0l-1.2-7.5     C20.6,147.3,20.5,147.1,20.6,147z"></path>
			<path class="st117" d="M20.7,147L20.7,147C20.7,147,20.7,147,20.7,147v-0.2c0-0.1,0-0.1,0-0.2v-0.1c0-0.1,0-0.1,0.1-0.2v-0.1     c0-0.1,0-0.1,0.1-0.2c0-0.1,0.1-0.2,0.1-0.3l0.1-0.1c0.5-0.7,1.2-1.1,2.1-1.1h47.3c1.6,0,3.2,1.3,3.4,2.9l6.3,40.5     c0.1,0.5,0,0.9-0.1,1.3c0,0.1-0.1,0.2-0.1,0.3s-0.1,0.2-0.1,0.2c0,0.1-0.1,0.1-0.1,0.2c-0.1,0.1-0.1,0.1-0.2,0.2     c-0.1,0.1-0.1,0.1-0.2,0.2l-0.1,0.1c-0.1,0.1-0.3,0.2-0.4,0.2c-0.1,0-0.1,0-0.2,0.1c-0.1,0-0.2,0.1-0.4,0.1c-0.1,0-0.1,0-0.2,0     c-0.2,0-0.4,0.1-0.6,0.1H30.5c-0.4,0-0.8-0.1-1.2-0.2c-0.4-0.2-0.7-0.4-1-0.7c-0.7-0.6-1-1.3-1.2-2.1l-5.1-33l0,0l-1.1-7.5     C20.7,147.4,20.7,147.2,20.7,147z"></path>
			<path class="st118" d="M20.9,147.2C20.9,147.1,20.9,147.1,20.9,147.2C20.9,147.1,20.9,147.1,20.9,147.2V147c0-0.1,0-0.1,0-0.2     v-0.1c0-0.1,0-0.1,0.1-0.2v-0.1c0-0.1,0-0.1,0.1-0.2c0-0.1,0.1-0.2,0.1-0.3l0.1-0.1c0.5-0.7,1.2-1.1,2.1-1.1h47.1     c1.6,0,3.1,1.3,3.4,2.9l6.3,40.3c0.1,0.5,0,0.9-0.1,1.3c0,0.1-0.1,0.2-0.1,0.3s-0.1,0.2-0.1,0.2c0,0.1-0.1,0.1-0.1,0.2     c0,0.1-0.1,0.1-0.2,0.2c-0.1,0.1-0.1,0.1-0.2,0.2l-0.1,0.1c-0.1,0.1-0.3,0.2-0.4,0.2c-0.1,0-0.1,0-0.2,0.1     c-0.1,0-0.2,0.1-0.4,0.1c-0.1,0-0.1,0-0.2,0c-0.2,0-0.4,0.1-0.6,0.1h-47c-0.4,0-0.8-0.1-1.2-0.2c-0.4-0.2-0.7-0.4-1-0.7     c-0.7-0.6-1-1.2-1.2-2.1L22,155.1l0,0l-1-7.4C20.9,147.5,20.9,147.3,20.9,147.2z"></path>
			<path class="st119" d="M21.1,147.3C21.1,147.3,21.1,147.2,21.1,147.3C21.1,147.2,21.1,147.2,21.1,147.3v-0.2c0-0.1,0-0.1,0-0.2     v-0.1c0-0.1,0-0.1,0.1-0.2v-0.1c0-0.1,0-0.1,0.1-0.2c0-0.1,0.1-0.2,0.1-0.3l0.1-0.1c0.5-0.7,1.1-1,2.1-1h46.7     c1.6,0,3.1,1.3,3.4,2.9l6.2,40c0.1,0.5,0,0.9-0.1,1.3c0,0.1-0.1,0.2-0.1,0.3s-0.1,0.2-0.1,0.2c0,0.1-0.1,0.1-0.1,0.2     c0,0.1-0.1,0.1-0.2,0.2c-0.1,0.1-0.1,0.1-0.2,0.2l-0.1,0.1c-0.1,0.1-0.3,0.2-0.4,0.2c0,0-0.1,0-0.2,0.1c-0.1,0-0.2,0.1-0.4,0.1     c-0.1,0-0.1,0-0.2,0c-0.2,0-0.4,0.1-0.6,0.1H30.8c-0.4,0-0.8-0.1-1.1-0.2c-0.4-0.2-0.7-0.4-1-0.7c-0.7-0.6-1-1.2-1.2-2.1     l-5.1-32.7l0,0l-1.1-7.4C21.1,147.6,21.1,147.5,21.1,147.3z"></path>
			<path class="st120" d="M21.2,147.4L21.2,147.4C21.2,147.3,21.2,147.3,21.2,147.4v-0.2c0-0.1,0-0.1,0-0.2V147c0-0.1,0-0.1,0.1-0.2     v-0.1c0-0.1,0-0.1,0.1-0.2c0-0.1,0.1-0.2,0.1-0.3l0.1-0.1c0.5-0.7,1.1-1,2.1-1h46.4c1.6,0,3.1,1.3,3.4,2.9l6.2,39.8     c0.1,0.5,0,0.9-0.1,1.3c0,0.1-0.1,0.2-0.1,0.3s-0.1,0.2-0.1,0.2c0,0.1-0.1,0.1-0.1,0.2s-0.1,0.1-0.2,0.2     c-0.1,0.1-0.1,0.1-0.2,0.2l-0.1,0.1c-0.1,0.1-0.3,0.2-0.4,0.2c0,0-0.1,0-0.2,0.1c-0.1,0-0.2,0.1-0.4,0.1c-0.1,0-0.1,0-0.2,0     c-0.2,0-0.4,0.1-0.5,0.1H30.9c-0.4,0-0.7-0.1-1.1-0.2c-0.4-0.2-0.7-0.4-1-0.7c-0.6-0.6-1-1.2-1.1-2.1l-5.1-32.6l0,0l-1.2-7.4     C21.2,147.7,21.2,147.6,21.2,147.4z"></path>
			<path class="st121" d="M21.4,147.5L21.4,147.5C21.4,147.4,21.4,147.4,21.4,147.5v-0.2c0-0.1,0-0.1,0-0.2V147c0-0.1,0-0.1,0.1-0.2     v-0.1c0-0.1,0-0.1,0.1-0.2c0-0.1,0.1-0.2,0.1-0.3l0.1-0.1c0.5-0.7,1.1-1,2.1-1H70c1.6,0,3.1,1.3,3.4,2.9l6.2,39.5     c0.1,0.5,0,0.9-0.1,1.3c0,0.1-0.1,0.2-0.1,0.3s-0.1,0.2-0.1,0.2c0,0.1-0.1,0.1-0.1,0.2c0,0.1-0.1,0.1-0.2,0.2     c-0.1,0.1-0.1,0.1-0.2,0.2l-0.1,0.1c-0.1,0.1-0.3,0.2-0.4,0.2c0,0-0.1,0-0.2,0.1c-0.1,0-0.2,0.1-0.4,0.1c-0.1,0-0.1,0-0.2,0     c-0.2,0-0.4,0.1-0.5,0.1H30.9c-0.4,0-0.7-0.1-1.1-0.2c-0.4-0.2-0.7-0.4-1-0.7c-0.6-0.6-1-1.2-1.1-2.1l-5-32.4l0,0l-1.1-7.3     C21.4,147.9,21.4,147.7,21.4,147.5z"></path>
			<path class="st122" d="M21.5,147.7C21.5,147.6,21.5,147.6,21.5,147.7C21.5,147.6,21.5,147.6,21.5,147.7v-0.2c0-0.1,0-0.1,0-0.2     v-0.1c0-0.1,0-0.1,0.1-0.2V147c0-0.1,0-0.1,0.1-0.2c0-0.1,0.1-0.2,0.1-0.3l0.1-0.1c0.5-0.7,1.1-1,2.1-1h46c1.6,0,3.1,1.3,3.3,2.9     l6.2,39.4c0.1,0.5,0,0.9-0.1,1.3c0,0.1-0.1,0.2-0.1,0.3s-0.1,0.2-0.1,0.2c0,0.1-0.1,0.1-0.1,0.2c0,0.1-0.1,0.1-0.2,0.2     c-0.1,0.1-0.1,0.1-0.2,0.2l-0.1,0.1c-0.1,0.1-0.3,0.2-0.4,0.2c0,0-0.1,0-0.2,0.1c-0.1,0-0.2,0.1-0.3,0.1s-0.1,0-0.2,0     c-0.2,0-0.4,0.1-0.5,0.1H31c-0.4,0-0.7-0.1-1.1-0.2c-0.4-0.2-0.7-0.4-1-0.7c-0.6-0.6-1-1.2-1.1-2.1l-5-32.3l0,0l-1.1-7.2     C21.5,148,21.5,147.8,21.5,147.7z"></path>
			<path class="st123" d="M21.7,147.8L21.7,147.8C21.7,147.7,21.7,147.7,21.7,147.8v-0.2c0-0.1,0-0.1,0-0.2v-0.1     c0-0.1,0-0.1,0.1-0.2V147c0-0.1,0-0.1,0.1-0.2c0-0.1,0.1-0.2,0.1-0.3l0.1-0.1c0.5-0.7,1.1-1,2.1-1h45.7c1.6,0,3,1.3,3.3,2.8     l6.2,39.2c0.1,0.5,0,0.9-0.1,1.3c0,0.1-0.1,0.2-0.1,0.3s-0.1,0.2-0.1,0.2c0,0.1-0.1,0.1-0.1,0.2c0,0.1-0.1,0.1-0.2,0.2     c-0.1,0.1-0.1,0.1-0.2,0.2l-0.1,0.1c-0.1,0.1-0.3,0.2-0.4,0.2c0,0-0.1,0-0.2,0.1c-0.1,0-0.2,0.1-0.3,0.1s-0.1,0-0.2,0     c-0.2,0-0.4,0.1-0.5,0.1H31.2c-0.4,0-0.7-0.1-1.1-0.2c-0.4-0.2-0.7-0.4-1-0.7c-0.6-0.5-1-1.2-1.1-2l-5-32l0,0l-1.1-7.2     C21.7,148.1,21.7,148,21.7,147.8z"></path>
			<path class="st124" d="M21.9,147.9L21.9,147.9C21.9,147.8,21.9,147.8,21.9,147.9v-0.2c0-0.1,0-0.1,0-0.2v-0.1     c0-0.1,0-0.1,0.1-0.2v-0.1c0-0.1,0-0.1,0.1-0.2c0-0.1,0.1-0.2,0.1-0.3l0.1-0.1c0.5-0.7,1.1-1,2.1-1h45.4c1.6,0,3,1.3,3.3,2.8     l6.1,38.9c0.1,0.5,0,0.9-0.1,1.3c0,0.1-0.1,0.2-0.1,0.3s-0.1,0.1-0.1,0.2c0,0.1-0.1,0.1-0.1,0.2c0,0.1-0.1,0.1-0.2,0.2     c-0.1,0.1-0.1,0.1-0.2,0.2l-0.1,0.1c-0.1,0.1-0.3,0.2-0.4,0.2c0,0-0.1,0-0.1,0.1c-0.1,0-0.2,0.1-0.3,0.1c-0.1,0-0.1,0-0.2,0     c-0.2,0-0.3,0.1-0.5,0.1H31.3c-0.4,0-0.7-0.1-1.1-0.2c-0.4-0.2-0.7-0.4-1-0.6c-0.6-0.5-1-1.2-1.1-2l-4.9-31.8l0,0l-1.2-7.3     C21.9,148.2,21.9,148.1,21.9,147.9z"></path>
			<path class="st81" d="M22.1,148.1C22.1,148,22.1,148,22.1,148.1C22.1,148,22.1,148,22.1,148.1v-0.2c0-0.1,0-0.1,0-0.2v-0.1     c0-0.1,0-0.1,0.1-0.2v-0.1c0-0.1,0-0.1,0.1-0.2c0-0.1,0.1-0.2,0.1-0.2l0.1-0.1c0.4-0.7,1.1-1,2-1h45.1c1.6,0,3,1.2,3.3,2.8     l6.1,38.7c0.1,0.5,0,0.8-0.1,1.3c0,0.1-0.1,0.2-0.1,0.3s-0.1,0.1-0.1,0.2c0,0.1-0.1,0.1-0.1,0.2c0,0.1-0.1,0.1-0.2,0.2     c-0.1,0.1-0.1,0.1-0.2,0.2l-0.1,0.1c-0.1,0.1-0.3,0.2-0.4,0.2c0,0-0.1,0-0.1,0.1c-0.1,0-0.2,0.1-0.3,0.1s-0.1,0-0.2,0     c-0.2,0-0.3,0.1-0.5,0.1H31.4c-0.4,0-0.7-0.1-1.1-0.2c-0.4-0.2-0.7-0.4-1-0.6c-0.6-0.5-1-1.2-1.1-2l-4.9-31.6l0,0l-1.1-7.1     C22.1,148.4,22.1,148.2,22.1,148.1z"></path>
		</g>
		<g>
			
				<linearGradient id="SVGID_20_" gradientUnits="userSpaceOnUse" x1="-22.446" y1="278.1909" x2="43.3418" y2="278.1909" gradientTransform="matrix(-1 0 -0.3134 -1 151.5193 442.4)">
				<stop offset="0" style="stop-color:#E9F1FE"></stop>
				<stop offset="1" style="stop-color:#FFFFFF"></stop>
			</linearGradient>
			<path class="st125" d="M31.8,189.9H84c1.8,0,3-1.5,2.7-3.3l-7-44.8c-0.3-1.8-2-3.3-3.7-3.3H23.8c-1.8,0-3,1.5-2.7,3.3l7,44.8     C28.3,188.5,30,189.9,31.8,189.9z"></path>
			<path class="st2" d="M22.8,138.7c-0.1,0.4-0.2,0.8-0.1,1.3l7,44.8c0.3,1.8,2,3.3,3.7,3.3h52.2c0.3,0,0.7-0.1,0.8-0.2     c-0.4,1.1-1.3,1.9-2.6,1.9H31.7c-1.8,0-3.5-1.5-3.7-3.3l-7-44.8C20.8,140.4,21.5,139.2,22.8,138.7z"></path>
			
				<linearGradient id="SVGID_21_" gradientUnits="userSpaceOnUse" x1="-39.4092" y1="298.5239" x2="20.4172" y2="298.5239" gradientTransform="matrix(-1 0 0 -1 41.4264 442.4)">
				<stop offset="0" style="stop-color:#FC7318"></stop>
				<stop offset="1" style="stop-color:#FEB423"></stop>
			</linearGradient>
			<path class="st126" d="M22.1,149.1l-1.1-7.2c-0.3-1.8,0.9-3.3,2.7-3.3h52.2c1.8,0,3.5,1.5,3.7,3.3l1.1,7.2     C80.8,149.1,22.1,149.1,22.1,149.1z"></path>
			
				<linearGradient id="SVGID_22_" gradientUnits="userSpaceOnUse" x1="14.5328" y1="302.1621" x2="29.7309" y2="287.2404" gradientTransform="matrix(-1 0 0 -1 41.4264 442.4)">
				<stop offset="0" style="stop-color:#FC7318"></stop>
				<stop offset="3.975421e-002" style="stop-color:#FC7819"></stop>
				<stop offset="0.266" style="stop-color:#FD921D"></stop>
				<stop offset="0.4985" style="stop-color:#FEA520"></stop>
				<stop offset="0.739" style="stop-color:#FEB022"></stop>
				<stop offset="1" style="stop-color:#FEB423"></stop>
			</linearGradient>
			<path class="st127" d="M22.6,138.8l0.2,0.9c0,0.1,0,0.2,0,0.3l1.4,8.8l-1.9,1.2l-1.3-8.1C20.8,140.5,21.4,139.4,22.6,138.8z"></path>
			<path class="st84" d="M72.5,143.9c0.1,0.5,0.6,0.9,1,0.9s0.8-0.4,0.7-0.9c-0.1-0.5-0.6-0.9-1-0.9S72.5,143.4,72.5,143.9z"></path>
			<path class="st56" d="M68.6,143.9c0.1,0.5,0.6,0.9,1,0.9c0.5,0,0.8-0.4,0.7-0.9c-0.1-0.5-0.6-0.9-1-0.9S68.5,143.4,68.6,143.9z"></path>
			<path class="st84" d="M68.6,143.9c0.1,0.5,0.6,0.9,1,0.9c0.5,0,0.8-0.4,0.7-0.9c-0.1-0.5-0.6-0.9-1-0.9S68.5,143.4,68.6,143.9z"></path>
			<path class="st84" d="M64.7,143.9c0.1,0.5,0.6,0.9,1,0.9c0.5,0,0.8-0.4,0.7-0.9c-0.1-0.5-0.6-0.9-1-0.9     C65,142.9,64.6,143.4,64.7,143.9z"></path>
		</g>
		<g>
			<path class="st5" d="M101.4,136.8l3.9,24.4H93c-2.9,0-5.6-2.3-6.1-5.2l-4-26.1h10.4C97.4,129.9,100.7,132.8,101.4,136.8z"></path>
			<path class="st85" d="M101.4,136.8l3.9,24.3H93.1c-2.9,0-5.6-2.3-6.1-5.2l-4-26h10.4C97.4,129.9,100.7,132.8,101.4,136.8z"></path>
			<path class="st86" d="M101.4,136.7l3.9,24.3H93.2c-2.9,0-5.6-2.3-6-5.2l-4-25.9h10.3C97.4,129.9,100.7,132.8,101.4,136.7z"></path>
			<path class="st87" d="M101.4,136.7l3.8,24.3H93.1c-2.9,0-5.5-2.3-6-5.1l-4-25.8h10.3C97.4,130,100.7,132.8,101.4,136.7z"></path>
			<path class="st88" d="M101.4,136.7l3.8,24.2h-12c-2.8,0-5.5-2.3-6-5.1l-4-25.7h10.2C97.4,130,100.7,132.8,101.4,136.7z"></path>
			<path class="st89" d="M101.4,136.7l3.8,24.1H93.2c-2.8,0-5.5-2.3-5.9-5.1L83.5,130h10.2C97.4,130,100.7,132.8,101.4,136.7z"></path>
			<path class="st90" d="M101.4,136.6l3.8,24H93.3c-2.8,0-5.4-2.2-5.9-5.1l-4-25.5h10.1C97.4,130,100.7,132.8,101.4,136.6z"></path>
			<path class="st91" d="M101.4,136.6l3.8,23.9H93.3c-2.8,0-5.4-2.2-5.9-5L83.5,130h10C97.4,130,100.7,132.8,101.4,136.6z"></path>
			<path class="st92" d="M101.4,136.6l3.8,23.9H93.4c-2.8,0-5.4-2.2-5.8-5l-3.9-25.4h10C97.4,130,100.7,132.8,101.4,136.6z"></path>
			<path class="st93" d="M101.4,136.6l3.8,23.8H93.5c-2.8,0-5.3-2.2-5.8-5l-3.9-25.3h9.9C97.4,130,100.7,132.8,101.4,136.6z"></path>
			<path class="st94" d="M101.4,136.5l3.7,23.7H93.4c-2.7,0-5.3-2.2-5.8-4.9l-3.9-25.2h10C97.4,130,100.7,132.8,101.4,136.5z"></path>
			<path class="st95" d="M101.3,136.5l3.7,23.6H93.4c-2.7,0-5.3-2.2-5.7-4.9l-3.8-25.1h9.8C97.5,130.1,100.7,132.8,101.3,136.5z"></path>
			<path class="st96" d="M101.3,136.5L105,160H93.5c-2.7,0-5.2-2.2-5.7-4.9L84,130h9.7C97.5,130.1,100.7,132.8,101.3,136.5z"></path>
			<path class="st97" d="M101.3,136.4l3.7,23.4H93.5c-2.7,0-5.2-2.1-5.7-4.9L84,130h9.7C97.5,130.1,100.7,132.8,101.3,136.4z"></path>
			<path class="st98" d="M101.3,136.4l3.7,23.4H93.6c-2.7,0-5.2-2.1-5.6-4.9l-3.8-24.9h9.6C97.5,130.1,100.7,132.8,101.3,136.4z"></path>
			<path class="st99" d="M101.3,136.4l3.7,23.3H93.7c-2.7,0-5.1-2.1-5.6-4.9l-3.8-24.8h9.6C97.5,130.1,100.7,132.8,101.3,136.4z"></path>
			<path class="st100" d="M101.3,136.4l3.7,23.2H93.7c-2.6,0-5.1-2.1-5.6-4.9l-3.7-24.7h9.5C97.5,130.1,100.7,132.8,101.3,136.4z"></path>
			<path class="st101" d="M101.3,136.3l3.6,23.1H93.7c-2.6,0-5.1-2.1-5.5-4.8l-3.8-24.6h9.5C97.6,130.1,100.7,132.8,101.3,136.3z"></path>
			<path class="st102" d="M101.3,136.3l3.6,23H93.8c-2.6,0-5.1-2.1-5.5-4.8l-3.7-24.5H94C97.6,130.2,100.7,132.8,101.3,136.3z"></path>
			<path class="st103" d="M101.3,136.3l3.6,22.9H93.8c-2.6,0-5-2.1-5.5-4.8l-3.7-24.4h9.3C97.6,130.2,100.7,132.8,101.3,136.3z"></path>
			<path class="st104" d="M101.3,136.3l3.6,22.9h-11c-2.6,0-5-2.1-5.4-4.7l-3.7-24.3h9.3C97.6,130.2,100.7,132.8,101.3,136.3z"></path>
			<path class="st105" d="M101.3,136.2l3.6,22.9H94c-2.6,0-5-2.1-5.4-4.7l-3.7-24.3h9.2C97.6,130.2,100.7,132.8,101.3,136.2z"></path>
			<path class="st106" d="M101.3,136.2l3.6,22.8H94.1c-2.6,0-4.9-2.1-5.3-4.7L85,130.2h9.2C97.6,130.2,100.7,132.8,101.3,136.2z"></path>
			<path class="st107" d="M101.3,136.2l3.6,22.7H94.1c-2.5,0-4.9-2.1-5.3-4.7L85,130.2h9.1C97.7,130.2,100.7,132.8,101.3,136.2z"></path>
			<path class="st108" d="M101.3,136.2l3.5,22.6H94.1c-2.5,0-4.9-2.1-5.3-4.6l-3.6-24.1h9.1C97.7,130.2,100.7,132.8,101.3,136.2z"></path>
			<path class="st109" d="M101.3,136.1l3.5,22.5H94.2c-2.5,0-4.9-2.1-5.2-4.6l-3.7-23.9h9C97.7,130.2,100.7,132.8,101.3,136.1z"></path>
			<path class="st110" d="M101.3,136.1l3.5,22.5H94.2c-2.5,0-4.9-2.1-5.2-4.6l-3.6-23.8h9C97.7,130.3,100.7,132.8,101.3,136.1z"></path>
			<path class="st111" d="M101.2,136.1l3.5,22.4H94.2c-2.5,0-4.9-2.1-5.2-4.5l-3.6-23.8h9C97.7,130.3,100.7,132.8,101.2,136.1z"></path>
			<path class="st112" d="M101.2,136.1l3.5,22.3H94.3c-2.5,0-4.8-2.1-5.1-4.5l-3.6-23.7h8.9C97.7,130.3,100.7,132.7,101.2,136.1z"></path>
			<path class="st113" d="M101.2,136l3.5,22.2H94.3c-2.4,0-4.8-2-5.1-4.5l-3.6-23.6h8.9C97.8,130.3,100.7,132.7,101.2,136z"></path>
			<path class="st114" d="M101.2,136l3.5,22.1H94.3c-2.4,0-4.8-2-5.1-4.4l-3.6-23.5h8.8C97.8,130.3,100.7,132.7,101.2,136z"></path>
			<path class="st115" d="M101.2,136l3.5,22H94.4c-2.4,0-4.7-2-5-4.4l-3.5-23.4h8.7C97.8,130.3,100.7,132.7,101.2,136z"></path>
			<path class="st116" d="M101.2,136l3.5,22H94.4c-2.4,0-4.7-2-5-4.4l-3.5-23.3h8.7C97.8,130.3,100.7,132.7,101.2,136z"></path>
			<path class="st117" d="M101.2,135.9l3.5,21.9H94.5c-2.4,0-4.7-2-5-4.4l-3.5-23.2h8.6C97.8,130.3,100.6,132.7,101.2,135.9z"></path>
			<path class="st118" d="M101.2,135.9l3.5,21.8H94.6c-2.4,0-4.6-2-4.9-4.3l-3.5-23.1h8.6C97.8,130.4,100.6,132.7,101.2,135.9z"></path>
			<path class="st119" d="M101.2,135.9l3.5,21.7H94.6c-2.3,0-4.6-2-4.9-4.3l-3.5-23h8.5C97.9,130.4,100.6,132.7,101.2,135.9z"></path>
			<path class="st120" d="M101.2,135.9l3.5,21.6h-10c-2.3,0-4.6-1.9-4.9-4.3l-3.5-22.9h8.5C97.9,130.4,100.6,132.7,101.2,135.9z"></path>
			<path class="st121" d="M101.2,135.9l3.4,21.5h-9.9c-2.3,0-4.6-1.9-4.9-4.2l-3.5-22.9h8.4C97.9,130.4,100.6,132.7,101.2,135.9z"></path>
			<path class="st122" d="M101.2,135.9l3.4,21.5h-9.8c-2.3,0-4.5-1.9-4.9-4.2l-3.5-22.9h8.3C97.9,130.4,100.6,132.7,101.2,135.9z"></path>
			<path class="st123" d="M101.2,135.9l3.4,21.5h-9.8c-2.3,0-4.5-1.9-4.9-4.2l-3.5-22.8h8.3C97.9,130.4,100.6,132.7,101.2,135.9z"></path>
			<path class="st124" d="M101.2,135.9l3.4,21.4h-9.7c-2.3,0-4.5-1.9-4.8-4.2l-3.5-22.7h8.2C97.9,130.4,100.6,132.7,101.2,135.9z"></path>
			<path class="st81" d="M101.2,135.8l3.4,21.3h-9.6c-2.2,0-4.4-1.9-4.8-4.1l-3.5-22.6h8.2C98,130.4,100.6,132.7,101.2,135.8z"></path>
		</g>
		<g>
			
				<linearGradient id="SVGID_23_" gradientUnits="userSpaceOnUse" x1="-49.8245" y1="286.5812" x2="-84.8925" y2="338.9329" gradientTransform="matrix(-1 0 0 -1 41.4264 442.4)">
				<stop offset="0" style="stop-color:#E9F1FE"></stop>
				<stop offset="1" style="stop-color:#FFFFFF"></stop>
			</linearGradient>
			<path class="st128" d="M95.8,157.7h35.1c2.9,0,4.9-2.3,4.5-5.2l-7.1-46.2c-0.5-2.9-3.2-5.2-6.1-5.2H87.1c-2.9,0-4.9,2.3-4.5,5.2     l7.1,46.1C90.2,155.3,92.9,157.7,95.8,157.7z"></path>
			<path class="st2" d="M84.4,101.9c-0.7,0.9-0.9,2.1-0.7,3.5l7.1,46.1c0.5,2.9,3.2,5.2,6.1,5.2h35.1c1,0,2-0.3,2.7-0.8     c-0.7,1.1-2.1,1.9-3.7,1.9H95.8c-2.9,0-5.6-2.3-6.1-5.2l-7.1-46.1C82.3,104.4,83.1,102.8,84.4,101.9z"></path>
			<path class="st82" d="M97.8,118.8c0.9,6.2,6.7,11.1,12.9,11.1c6.2,0,10.4-4.9,9.4-11.1c-0.9-6.2-6.7-11.1-12.9-11.1     S96.9,112.6,97.8,118.8z"></path>
			<path class="st83" d="M103.8,117.9c0.5,2.9,3.1,5.1,6,5.1c2.9,0,4.8-2.3,4.4-5.1c-0.5-2.9-3.1-5.1-6-5.1     C105.3,112.8,103.3,115.1,103.8,117.9z"></path>
			<path class="st83" d="M110.7,129.9c-3.4,0-6.5-1.5-9-3.8c2.3-1.6,5.4-2.4,9-2.1c2.7,0.2,5.3,1,7.6,2.2     C116.8,128.4,114,129.9,110.7,129.9z"></path>
			<polygon class="st83" points="97.9,137.2 124.7,137.2 124.4,135.6 97.7,135.6    "></polygon>
			<polygon class="st83" points="98.7,141.7 125.3,141.7 125.1,140.1 98.4,140.1    "></polygon>
			<polygon class="st83" points="116.1,146.3 126.1,146.3 125.8,144.7 115.8,144.7    "></polygon>
		</g>
	</g>
</g>
<g id="Fixed">
	<path class="st129" d="M55.9,155.3c-7.1,0-12.9,5.8-12.9,12.9c0,7.1,5.8,12.9,12.9,12.9s12.9-5.8,12.9-12.9   C68.8,161,63,155.3,55.9,155.3z M44.3,168.2c0-1.7,0.4-3.3,1-4.8l5.5,15.2C47,176.8,44.3,172.8,44.3,168.2z M55.9,179.8   c-1.1,0-2.2-0.2-3.3-0.5l3.5-10.2l3.5,9.8c0,0.1,0.1,0.1,0.1,0.2C58.6,179.6,57.2,179.8,55.9,179.8z M57.5,162.8   c0.7,0,1.3-0.1,1.3-0.1c0.7-0.1,0.6-1-0.1-0.9c0,0-1.9,0.2-3.1,0.2c-1.1,0-3.1-0.2-3.1-0.2c-0.7,0-0.7,0.9-0.1,0.9   c0,0,0.6,0.1,1.2,0.1l1.8,4.9l-2.5,7.6l-4.2-12.6c0.7,0,1.3-0.1,1.3-0.1c0.7-0.1,0.6-1-0.1-0.9c0,0-1.9,0.2-3.1,0.2   c-0.2,0-0.5,0-0.7,0c2.1-3.2,5.7-5.2,9.7-5.2c3,0,5.8,1.1,7.8,3.1c-0.1,0-0.1,0-0.2,0c-1.1,0-2,1-2,2.1c0,0.9,0.6,1.8,1.1,2.7   c0.5,0.7,0.9,1.8,0.9,3.2c0,1-0.4,2.1-0.9,3.7l-1.1,3.8L57.5,162.8z M66.1,162.6c0.9,1.7,1.4,3.5,1.4,5.6c0,4.3-2.3,8-5.8,10.1   l3.5-10.3c0.7-1.7,0.9-3,0.9-4.2C66.2,163.4,66.1,163,66.1,162.6z"></path>
</g>
</svg>
